<svg xmlns="http://www.w3.org/2000/svg" version="1.1" width="3300" height="2000"><g id="Notes"><style>
    text {
      font-family: monospace;
      text-anchor: middle;
    }
    text.emphasis {
      font-weight:bold;
    }
    text.lanchor {
      text-anchor: start;
    }
  </style><rect height="2200" id="artboard" fill="white" width="3300" x="0" y="0"/><line id="" style="fill:none;stroke:black;stroke-width:0.5;" x1="263" x2="3036" y1="292" y2="292"/><text class="lanchor emphasis" transform="matrix(1 0 0 1 263 322)">Weight/Scale Variations</text><text transform="matrix(1 0 0 1 559.711 322)">Ultralight</text><text transform="matrix(1 0 0 1 856.422 322)">Thin</text><text transform="matrix(1 0 0 1 1153.13 322)">Light</text><text transform="matrix(1 0 0 1 1449.84 322)">Regular</text><text transform="matrix(1 0 0 1 1746.56 322)">Medium</text><text transform="matrix(1 0 0 1 2043.27 322)">Semibold</text><text transform="matrix(1 0 0 1 2339.98 322)">Bold</text><text transform="matrix(1 0 0 1 2636.69 322)">Heavy</text><text transform="matrix(1 0 0 1 2933.4 322)">Black</text><text id="template-version" style="text-anchor: end;" transform="matrix(1 0 0 1 3036 1933)">Template v.1.0</text><text class="lanchor" transform="matrix(1 0 0 1 263 726)">Small</text><text class="lanchor" transform="matrix(1 0 0 1 263 1156)">Medium</text><text class="lanchor" transform="matrix(1 0 0 1 263 1586)">Large</text></g><g id="Guides"><g id="H-reference" style="fill:#27AAE1;stroke:none;" transform="matrix(1 0 0 1 339 696)"><path d="M 54.9316 0 L 57.666 0 L 30.5664 -70.459 L 28.0762 -70.459 L 0.976562 0 L 3.66211 0 L 12.9395 -24.4629 L 45.7031 -24.4629 Z M 29.1992 -67.0898 L 29.4434 -67.0898 L 44.8242 -26.709 L 13.8184 -26.709 Z"/></g><line id="Baseline-S" style="fill:none;stroke:#27AAE1;opacity:1;stroke-width:0.577;" x1="263" x2="3036" y1="696" y2="696"/><line id="Capline-S" style="fill:none;stroke:#27AAE1;opacity:1;stroke-width:0.577;" x1="263" x2="3036" y1="625.541" y2="625.541"/><g id="H-reference" style="fill:#27AAE1;stroke:none;" transform="matrix(1 0 0 1 339 1126)"><path d="M 54.9316 0 L 57.666 0 L 30.5664 -70.459 L 28.0762 -70.459 L 0.976562 0 L 3.66211 0 L 12.9395 -24.4629 L 45.7031 -24.4629 Z M 29.1992 -67.0898 L 29.4434 -67.0898 L 44.8242 -26.709 L 13.8184 -26.709 Z"/></g><line id="Baseline-M" style="fill:none;stroke:#27AAE1;opacity:1;stroke-width:0.577;" x1="263" x2="3036" y1="1126" y2="1126"/><line id="Capline-M" style="fill:none;stroke:#27AAE1;opacity:1;stroke-width:0.577;" x1="263" x2="3036" y1="1055.54" y2="1055.54"/><g id="H-reference" style="fill:#27AAE1;stroke:none;" transform="matrix(1 0 0 1 339 1556)"><path d="M 54.9316 0 L 57.666 0 L 30.5664 -70.459 L 28.0762 -70.459 L 0.976562 0 L 3.66211 0 L 12.9395 -24.4629 L 45.7031 -24.4629 Z M 29.1992 -67.0898 L 29.4434 -67.0898 L 44.8242 -26.709 L 13.8184 -26.709 Z"/></g><line id="Baseline-L" style="fill:none;stroke:#27AAE1;opacity:1;stroke-width:0.577;" x1="263" x2="3036" y1="1556" y2="1556"/><line id="Capline-L" style="fill:none;stroke:#27AAE1;opacity:1;stroke-width:0.577;" x1="263" x2="3036" y1="1485.54" y2="1485.54"/><rect height="119.336" id="left-margin" style="fill:darkred;stroke:none;opacity:0.4;" width="12.4512" x="1394.06" y="1030.79"/><rect height="119.336" id="right-margin" style="fill:darkgreen;stroke:none;opacity:0.4;" width="12.4512" x="1502.5112" y="1030.79"/><rect x="1406.5112" y="1045" width="96" height="96" fill="none" stroke="blue" stroke-dasharray="5"/><rect x="1394.06" y="1030.79" width="120.9024" height="119.336" fill="none" stroke="blue"/></g><g id="Symbols"><g id="Bold-L" transform="matrix(1 0 0 1 2266 1556)"><path d="M54.353 5.882  77.406 -7.849  100.459 6.05  94.17 -19.911  114.487 -37.649  87.72 -39.906  77.4 -64.416  67.08 -39.906  40.312 -37.81  60.69 -20.23  54.353 5.882 Z M31.605 37.655  43.699 -14.59  3.064 -49.742  56.534 -54.224  77.4 -103.6  98.266 -54.224  151.736 -49.742  111.101 -14.59  123.356 37.655  77.4 9.759  31.605 37.655 Z"/></g><g id="Semibold-L" transform="matrix(1 0 0 1 1970.27 1556)"><path d="M53.366 7.287  77.403 -7.064  101.44 7.452  94.941 -19.701  116.1 -38.139  88.211 -40.537  77.4 -66.169  66.589 -40.607  38.7 -38.301  59.893 -19.951  53.366 7.287 Z M34.199 34.01  45.592 -15.221  7.34 -48.34  57.754 -52.626  77.4 -99.113  97.046 -52.626  147.46 -48.34  109.208 -15.221  120.692 34.01  77.4 7.796  34.199 34.01 Z"/></g><g id="Medium-L" transform="matrix(1 0 0 1 1674.31 1556)"><path d="M52.626 8.341  77.401 -6.475  102.176 8.504  95.52 -19.543  117.309 -38.508  88.579 -41.01  77.4 -67.484  66.221 -41.133  37.491 -38.669  59.295 -19.742  52.626 8.341 Z M36.145 31.275  47.011 -15.694  10.548 -47.289  58.669 -51.428  77.4 -95.748  96.131 -51.428  144.252 -47.289  107.789 -15.694  118.694 31.275  77.4 6.323  36.145 31.275 Z"/></g><g id="Regular-L" transform="matrix(1 0 0 1 1378.56 1556)"><path d="M52.084 9.114  77.4 -6.044  102.716 9.275  95.944 -19.427  118.196 -38.777  88.849 -41.357  77.4 -68.447  65.951 -41.519  36.604 -38.939  58.856 -19.589  52.084 9.114 Z M37.571 29.27  48.053 -16.041  12.9 -46.517  59.34 -50.549  77.4 -93.28  95.46 -50.549  141.9 -46.517  106.748 -16.041  117.229 29.27  77.4 5.244  37.571 29.27 Z"/></g><g id="Light-L" transform="matrix(1 0 0 1 1082.77 1556)"><path d="M53.448 7.315  77.4 -7.098  101.352 7.476  95.013 -19.8  116.087 -38.095  88.291 -40.551  77.4 -66.215  66.509 -40.712  38.713 -38.257  59.787 -19.899  53.448 7.315 Z M42.409 22.571  51.65 -17.22  20.777 -43.975  61.511 -47.51  77.4 -85.031  93.289 -47.51  134.023 -43.975  103.15 -17.22  112.391 22.571  77.4 1.46  42.409 22.571 Z"/></g><g id="Thin-L" transform="matrix(1 0 0 1 787.282 1556)"><path d="M54.813 5.517  77.4 -8.152  99.987 5.678  94.083 -20.172  113.979 -37.413  87.732 -39.745  77.4 -63.982  67.068 -39.906  40.821 -37.574  60.717 -20.209  54.813 5.517 Z M47.246 15.874  55.247 -18.398  28.653 -41.432  63.681 -44.471  77.4 -76.783  91.119 -44.471  126.147 -41.432  99.553 -18.398  107.554 15.874  77.4 -2.323  47.246 15.874 Z"/></g><g id="Ultralight-L" transform="matrix(1 0 0 1 491.205 1556)"><path d="M55.631 4.438  77.4 -8.785  99.169 4.599  93.525 -20.395  112.714 -37.004  87.398 -39.261  77.4 -62.642  67.403 -39.422  42.086 -37.165  61.275 -20.395  55.631 4.438 Z M50.149 11.855  57.405 -19.105  33.379 -39.906  64.984 -42.647  77.4 -71.834  89.816 -42.647  121.421 -39.906  97.395 -19.105  104.651 11.855  77.4 -4.592  50.149 11.855 Z"/></g><g id="Bold-M" transform="matrix(1 0 0 1 2281.8 1126)"><path d="M46.625 -9.48  60 -17.48  73.375 -9.355  69.75 -24.48  81.625 -34.73  66.125 -36.105  60 -50.48  53.875 -36.105  38.375 -34.855  50.25 -24.605  46.625 -9.48 Z M22.875 23.395  32.75 -18.855  -0.125 -47.355  43.125 -50.98  60 -90.855  76.875 -50.98  120.125 -47.355  87.25 -18.855  97.125 23.395  60 0.895  22.875 23.395 Z"/></g><g id="Semibold-M" transform="matrix(1 0 0 1 1985.97 1126)"><path d="M45.593 -8.013  60 -16.665  74.407 -7.888  70.565 -24.263  83.31 -35.273  66.614 -36.757  60 -52.273  53.386 -36.811  36.69 -35.398  49.435 -24.333  45.593 -8.013 Z M25.592 19.645  34.706 -19.507  4.277 -45.888  44.375 -49.295  60 -86.236  75.625 -49.295  115.723 -45.888  85.294 -19.507  94.408 19.645  60 -1.17  25.592 19.645 Z"/></g><g id="Medium-M" transform="matrix(1 0 0 1 1689.91 1126)"><path d="M44.818 -6.912  60 -16.053  75.182 -6.787  71.177 -24.1  84.573 -35.681  66.981 -37.246  60 -53.619  53.019 -37.341  35.427 -35.806  48.823 -24.129  44.818 -6.912 Z M27.63 16.833  36.174 -19.996  7.579 -44.787  45.312 -48.032  60 -82.771  74.688 -48.032  112.421 -44.787  83.826 -19.996  92.37 16.833  60 -2.719  27.63 16.833 Z"/></g><g id="Regular-M" transform="matrix(1 0 0 1 1394.06 1126)"><path d="M44.25 -6.105  60 -15.605  75.75 -5.98  71.625 -23.98  85.5 -35.98  67.25 -37.605  60 -54.605  52.75 -37.73  34.5 -36.105  48.375 -23.98  44.25 -6.105 Z M29.125 14.77  37.25 -20.355  10 -43.98  46 -47.105  60 -80.23  74 -47.105  110 -43.98  82.75 -20.355  90.875 14.77  60 -3.855  29.125 14.77 Z"/></g><g id="Light-M" transform="matrix(1 0 0 1 1098.18 1126)"><path d="M44.25 -6.105  60 -15.605  75.75 -5.98  71.625 -23.98  85.5 -35.98  67.25 -37.605  60 -54.605  52.75 -37.73  34.5 -36.105  48.375 -23.98  44.25 -6.105 Z M32.875 9.577  40.039 -21.268  16.106 -42.009  47.683 -44.749  60 -73.835  72.317 -44.749  103.894 -42.009  79.961 -21.268  87.125 9.577  60 -6.788  32.875 9.577 Z"/></g><g id="Thin-M" transform="matrix(1 0 0 1 802.565 1126)"><path d="M44.25 -6.105  60 -15.605  75.75 -5.98  71.625 -23.98  85.5 -35.98  67.25 -37.605  60 -54.605  52.75 -37.73  34.5 -36.105  48.375 -23.98  44.25 -6.105 Z M36.625 4.386  42.827 -22.182  22.212 -40.038  49.365 -42.393  60 -67.442  70.635 -42.393  97.788 -40.038  77.173 -22.182  83.375 4.386  60 -9.72  36.625 4.386 Z"/></g><g id="Ultralight-M" transform="matrix(1 0 0 1 506.415 1126)"><path d="M44.25 -6.105  60 -15.605  75.75 -5.98  71.625 -23.98  85.5 -35.98  67.25 -37.605  60 -54.605  52.75 -37.73  34.5 -36.105  48.375 -23.98  44.25 -6.105 Z M38.875 1.27  44.5 -22.73  25.875 -38.855  50.375 -40.98  60 -63.605  69.625 -40.98  94.125 -38.855  75.5 -22.73  81.125 1.27  60 -11.48  38.875 1.27 Z"/></g><g id="Bold-S" transform="matrix(1 0 0 1 2294.23 696)"><path d="M36.59 -14.716  47.34 -21.028  58.189 -14.716  55.23 -26.65  64.599 -34.638  52.271 -35.723  47.34 -47.164  42.409 -35.624  30.081 -34.638  39.549 -26.748  36.59 -14.716 Z M19.035 9.447  26.629 -22.409  1.479 -43.909  34.42 -46.67  47.34 -76.751  60.26 -46.572  93.201 -43.909  68.051 -22.409  75.645 9.447  47.34 -7.516  19.035 9.447 Z"/></g><g id="Semibold-S" transform="matrix(1 0 0 1 1998.1 696)"><path d="M35.775 -13.558  47.34 -20.385  59.003 -13.558  55.873 -26.478  65.929 -35.067  52.657 -36.238  47.34 -48.579  42.023 -36.182  28.751 -35.067  38.905 -26.534  35.775 -13.558 Z M21.179 6.489  28.172 -22.923  4.952 -42.751  35.406 -45.341  47.34 -73.107  59.274 -45.243  89.728 -42.751  66.508 -22.923  73.501 6.489  47.34 -9.146  21.179 6.489 Z"/></g><g id="Medium-S" transform="matrix(1 0 0 1 1701.85 696)"><path d="M35.164 -12.69  47.34 -19.902  59.614 -12.69  56.356 -26.35  66.926 -35.389  52.947 -36.624  47.34 -49.64  41.733 -36.6  27.754 -35.389  38.423 -26.373  35.164 -12.69 Z M22.787 4.269  29.33 -23.309  7.558 -41.883  36.146 -44.344  47.34 -70.373  58.534 -44.246  87.122 -41.883  65.35 -23.309  71.893 4.269  47.34 -10.368  22.787 4.269 Z"/></g><g id="Regular-S" transform="matrix(1 0 0 1 1405.73 696)"><path d="M34.716 -12.053  47.34 -19.549  60.063 -12.053  56.709 -26.255  67.657 -35.624  53.159 -36.907  47.34 -50.418  41.521 -36.907  27.023 -35.624  38.069 -26.255  34.716 -12.053 Z M23.966 2.642  30.179 -23.592  9.468 -41.246  36.689 -43.613  47.34 -68.368  57.992 -43.514  85.212 -41.246  64.501 -23.592  70.714 2.642  47.34 -11.264  23.966 2.642 Z"/></g><g id="Light-S" transform="matrix(1 0 0 1 1109.75 696)"><path d="M34.716 -12.053  47.34 -19.549  60.063 -12.053  56.709 -26.255  67.657 -35.624  53.159 -36.907  47.34 -50.418  41.521 -36.907  27.023 -35.624  38.069 -26.255  34.716 -12.053 Z M26.925 -1.455  32.379 -24.313  14.286 -39.691  38.016 -41.754  47.34 -63.323  56.664 -41.656  80.394 -39.691  62.301 -24.313  67.755 -1.455  47.34 -13.578  26.925 -1.455 Z"/></g><g id="Thin-S" transform="matrix(1 0 0 1 814.015 696)"><path d="M34.716 -12.053  47.34 -19.549  60.063 -12.053  56.709 -26.255  67.657 -35.624  53.159 -36.907  47.34 -50.418  41.521 -36.907  27.023 -35.624  38.069 -26.255  34.716 -12.053 Z M29.883 -5.551  34.579 -25.034  19.103 -38.136  39.344 -39.896  47.34 -58.278  55.336 -39.797  75.577 -38.136  60.101 -25.034  64.797 -5.551  47.34 -15.892  29.883 -5.551 Z"/></g><g id="Ultralight-S" transform="matrix(1 0 0 1 517.792 696)"><path d="M34.716 -12.053  47.34 -19.549  60.063 -12.053  56.709 -26.255  67.657 -35.624  53.159 -36.907  47.34 -50.418  41.521 -36.907  27.023 -35.624  38.069 -26.255  34.716 -12.053 Z M31.659 -8.009  35.9 -25.466  21.993 -37.202  40.14 -38.78  47.34 -55.251  54.54 -38.682  72.687 -37.202  58.781 -25.466  63.021 -8.009  47.34 -17.28  31.659 -8.009 Z"/></g></g></svg>