<svg xmlns="http://www.w3.org/2000/svg" version="1.1" width="3300" height="2000"><g id="Notes"><style>
    text {
      font-family: monospace;
      text-anchor: middle;
    }
    text.emphasis {
      font-weight:bold;
    }
    text.lanchor {
      text-anchor: start;
    }
  </style><rect height="2200" id="artboard" fill="white" width="3300" x="0" y="0"/><line id="" style="fill:none;stroke:black;stroke-width:0.5;" x1="263" x2="3036" y1="292" y2="292"/><text class="lanchor emphasis" transform="matrix(1 0 0 1 263 322)">Weight/Scale Variations</text><text transform="matrix(1 0 0 1 559.711 322)">Ultralight</text><text transform="matrix(1 0 0 1 856.422 322)">Thin</text><text transform="matrix(1 0 0 1 1153.13 322)">Light</text><text transform="matrix(1 0 0 1 1449.84 322)">Regular</text><text transform="matrix(1 0 0 1 1746.56 322)">Medium</text><text transform="matrix(1 0 0 1 2043.27 322)">Semibold</text><text transform="matrix(1 0 0 1 2339.98 322)">Bold</text><text transform="matrix(1 0 0 1 2636.69 322)">Heavy</text><text transform="matrix(1 0 0 1 2933.4 322)">Black</text><text id="template-version" style="text-anchor: end;" transform="matrix(1 0 0 1 3036 1933)">Template v.1.0</text><text class="lanchor" transform="matrix(1 0 0 1 263 726)">Small</text><text class="lanchor" transform="matrix(1 0 0 1 263 1156)">Medium</text><text class="lanchor" transform="matrix(1 0 0 1 263 1586)">Large</text></g><g id="Guides"><g id="H-reference" style="fill:#27AAE1;stroke:none;" transform="matrix(1 0 0 1 339 696)"><path d="M 54.9316 0 L 57.666 0 L 30.5664 -70.459 L 28.0762 -70.459 L 0.976562 0 L 3.66211 0 L 12.9395 -24.4629 L 45.7031 -24.4629 Z M 29.1992 -67.0898 L 29.4434 -67.0898 L 44.8242 -26.709 L 13.8184 -26.709 Z"/></g><line id="Baseline-S" style="fill:none;stroke:#27AAE1;opacity:1;stroke-width:0.577;" x1="263" x2="3036" y1="696" y2="696"/><line id="Capline-S" style="fill:none;stroke:#27AAE1;opacity:1;stroke-width:0.577;" x1="263" x2="3036" y1="625.541" y2="625.541"/><g id="H-reference" style="fill:#27AAE1;stroke:none;" transform="matrix(1 0 0 1 339 1126)"><path d="M 54.9316 0 L 57.666 0 L 30.5664 -70.459 L 28.0762 -70.459 L 0.976562 0 L 3.66211 0 L 12.9395 -24.4629 L 45.7031 -24.4629 Z M 29.1992 -67.0898 L 29.4434 -67.0898 L 44.8242 -26.709 L 13.8184 -26.709 Z"/></g><line id="Baseline-M" style="fill:none;stroke:#27AAE1;opacity:1;stroke-width:0.577;" x1="263" x2="3036" y1="1126" y2="1126"/><line id="Capline-M" style="fill:none;stroke:#27AAE1;opacity:1;stroke-width:0.577;" x1="263" x2="3036" y1="1055.54" y2="1055.54"/><g id="H-reference" style="fill:#27AAE1;stroke:none;" transform="matrix(1 0 0 1 339 1556)"><path d="M 54.9316 0 L 57.666 0 L 30.5664 -70.459 L 28.0762 -70.459 L 0.976562 0 L 3.66211 0 L 12.9395 -24.4629 L 45.7031 -24.4629 Z M 29.1992 -67.0898 L 29.4434 -67.0898 L 44.8242 -26.709 L 13.8184 -26.709 Z"/></g><line id="Baseline-L" style="fill:none;stroke:#27AAE1;opacity:1;stroke-width:0.577;" x1="263" x2="3036" y1="1556" y2="1556"/><line id="Capline-L" style="fill:none;stroke:#27AAE1;opacity:1;stroke-width:0.577;" x1="263" x2="3036" y1="1485.54" y2="1485.54"/><rect height="119.336" id="left-margin" style="fill:darkred;stroke:none;opacity:0.4;" width="12.4512" x="1394.06" y="1030.79"/><rect height="119.336" id="right-margin" style="fill:darkgreen;stroke:none;opacity:0.4;" width="12.4512" x="1502.5112" y="1030.79"/><rect x="1406.5112" y="1045" width="96" height="96" fill="none" stroke="blue" stroke-dasharray="5"/><rect x="1394.06" y="1030.79" width="120.9024" height="119.336" fill="none" stroke="blue"/></g><g id="Symbols"><g id="Bold-L" transform="matrix(1 0 0 1 2266 1556)"><path d="M2.41875 22.497500000000016 V2.9862500000000125 Q2.41875 -3.8349474999999913 5.91706875 -9.28471374999998 Q9.41554875 -14.73447999999999 15.641250000000001 -17.653749999999988 Q27.735 -22.813749999999985 37.6476825 -25.232499999999987 Q47.560365 -27.65124999999999 58.05241875 -27.65124999999999 Q68.85375 -27.65124999999999 78.609375 -25.313124999999985 Q88.36500000000001 -22.97499999999998 100.45875000000001 -17.653749999999988 Q106.64172 -14.940557499999983 110.24211000000001 -9.479019999999984 Q113.8425 -4.017482499999993 113.8425 2.9773812500000147 V22.497500000000016 H2.41875 Z M125.29125 22.497500000000016 V3.3087500000000176 Q125.29125 -7.172499999999985 120.211875 -14.348124999999989 Q115.13250000000001 -21.523749999999986 106.425 -27.328749999999985 Q116.26125 -25.877499999999984 125.049375 -23.539374999999993 Q133.8375 -21.201249999999987 139.6425 -18.298749999999984 Q145.4475 -15.234999999999985 148.914375 -9.460959999999986 Q152.38125 -3.6870812499999843 152.38125 3.801207500000018 V22.497500000000016 H125.29125 Z M58.08999 -37.48749999999998 Q46.44 -37.48749999999998 39.18375 -44.74374999999999 Q31.927500000000002 -51.999999999999986 31.927500000000002 -63.69062499999998 Q31.927500000000002 -75.38125 39.190845 -82.63749999999999 Q46.45435125 -89.89374999999998 58.057095 -89.89374999999998 Q69.66 -89.89374999999998 76.996875 -82.63250124999999 Q84.33375000000001 -75.37125249999998 84.33375000000001 -63.77124999999998 Q84.33375000000001 -51.999999999999986 77.036865 -44.74374999999999 Q69.73998 -37.48749999999998 58.08999 -37.48749999999998 Z M122.06625 -63.77270124999998 Q122.06625 -52.16124999999998 114.73792125 -44.82437499999999 Q107.40943125000001 -37.48749999999998 95.74267125000001 -37.48749999999998 Q93.7981575 -37.48749999999998 91.80720375 -37.80999999999999 Q89.81625 -38.13249999999999 87.55875 -38.938749999999985 Q91.75125 -43.29249999999999 93.766875 -49.55738499999998 Q95.7825 -55.822269999999975 95.7825 -63.66675999999998 Q95.7825 -71.51124999999999 93.74188125 -77.55538374999998 Q91.70126250000001 -83.59935625 87.55875 -88.46346249999999 Q89.49375 -89.08749999999998 91.62886125 -89.490625 Q93.7639725 -89.89374999999998 95.74234875 -89.89374999999998 Q107.34993 -89.89374999999998 114.70809000000001 -82.55332749999998 Q122.06625 -75.21274374999999 122.06625 -63.77270124999998 Z M17.57625 7.340000000000018 H98.52375 V3.6312500000000156 Q98.52375 1.1555787500000108 96.99187500000001 -1.1778699999999844 Q95.46000000000001 -3.5111574999999817 93.2025 -4.431249999999984 Q82.2375 -9.107499999999987 74.82000000000001 -10.719999999999985 Q67.4025 -12.332499999999989 58.050000000000004 -12.332499999999989 Q49.02 -12.332499999999989 41.28 -10.719999999999985 Q33.54 -9.107499999999987 22.736250000000002 -4.431249999999984 Q20.64 -3.5348612499999845 19.108125 -1.1941562499999847 Q17.57625 1.146548750000015 17.57625 3.6312500000000156 V7.340000000000018 Z M58.024361250000005 -50.87124999999999 Q63.6373125 -50.87124999999999 67.29365625 -54.48002499999998 Q70.95 -58.08896124999998 70.95 -63.67127499999998 Q70.95 -69.25374999999998 67.34106375 -72.881875 Q63.732288749999995 -76.50999999999999 58.14981375000001 -76.50999999999999 Q52.5675 -76.50999999999999 48.939375 -72.92670249999999 Q45.31125 -69.34340499999999 45.31125 -63.79688874999998 Q45.31125 -58.183937499999985 48.8945475 -54.52759374999998 Q52.477845 -50.87124999999999 58.024361250000005 -50.87124999999999 Z"/></g><g id="Semibold-L" transform="matrix(1 0 0 1 1970.27 1556)"><path d="M4.03108875 19.83348875000002 V2.2151525000000163 Q4.03108875 -4.094237499999991 7.270440000000001 -9.172644999999982 Q10.509791250000001 -14.251052499999993 16.27222125 -16.882652499999992 Q28.22568375 -22.04265249999999 37.92987 -24.39125874999999 Q47.634217500000005 -26.739864999999995 57.91116375 -26.739864999999995 Q68.36306625 -26.739864999999995 77.94341250000001 -24.436892499999985 Q87.52375875 -22.133758749999984 99.47722125 -16.882652499999992 Q105.21546375000001 -14.367474999999985 108.54753375 -9.282456249999981 Q111.87960375 -4.197437499999985 111.87960375 2.2101537500000177 V19.83348875000002 H4.03108875 Z M122.55725625 19.83348875000002 V2.397365000000015 Q122.55725625 -7.943597499999981 117.44272875 -14.838808749999984 Q112.32836250000001 -21.73401999999998 103.76098875000001 -26.767922499999983 Q114.15806625 -25.38681624999998 123.40188375000001 -22.97854749999999 Q132.64570125 -20.570278749999986 138.59098875 -17.527652499999988 Q144.1855575 -14.463902499999989 147.477315 -9.237144999999984 Q150.76891125 -4.010548749999991 150.76891125 2.675682500000015 V19.83348875000002 H122.55725625 Z M57.932448750000006 -36.57611499999999 Q46.72041375 -36.57611499999999 39.67443375 -43.62209499999999 Q32.628615 -50.66807499999999 32.628615 -61.90300749999999 Q32.628615 -73.13793999999999 39.678465 -80.18391999999999 Q46.72847625 -87.22973875 57.913905 -87.22973875 Q69.0991725 -87.22973875 76.190625 -80.18101749999998 Q83.28223875 -73.13229624999998 83.28223875 -61.94847999999999 Q83.28223875 -50.66807499999999 76.2132 -43.62209499999999 Q69.1443225 -36.57611499999999 57.932448750000006 -36.57611499999999 Z M119.33225625 -61.949286249999986 Q119.33225625 -50.75918124999998 112.24548 -43.66772874999998 Q105.15870375000002 -36.57611499999999 93.93731625000001 -36.57611499999999 Q92.0669775 -36.57611499999999 89.9952375 -36.86362374999999 Q87.9234975 -37.150971249999984 85.87626750000001 -37.88723874999998 Q89.92848000000001 -42.100701249999986 91.94410500000001 -48.20078874999999 Q93.95973000000001 -54.300715 93.95973000000001 -61.88946249999999 Q93.95973000000001 -69.47820999999999 91.93007625000001 -75.31320249999999 Q89.90026125 -81.14819499999999 85.87626750000001 -85.93070874999998 Q87.74112375 -86.49363249999999 89.89445625 -86.86176624999999 Q92.04762749999999 -87.22973875 93.937155 -87.22973875 Q105.12500250000001 -87.22973875 112.22870999999999 -80.13619 Q119.33225625 -73.04264124999997 119.33225625 -61.949286249999986 Z M16.805152500000002 7.059586250000017 H99.01443375000001 V2.5797387500000184 Q99.01443375000001 0.058595000000011055 97.48255875000001 -2.3117799999999846 Q95.95068375000001 -4.682316249999985 93.69318375 -5.623048749999988 Q82.44776999999999 -10.509568749999985 74.82000000000001 -12.192212499999982 Q67.19223000000001 -13.874856249999986 57.9097125 -13.874856249999986 Q48.80973000000001 -13.874856249999986 40.964595 -12.192212499999982 Q33.11929875 -10.509568749999985 21.9651525 -5.623048749999988 Q19.79875875 -4.695699999999981 18.301875 -2.321132499999983 Q16.805152500000002 0.053596250000012446 16.805152500000002 2.5797387500000184 V7.059586250000017 Z M57.8952 -48.34752624999999 Q63.802110000000006 -48.34752624999999 67.65646875 -52.175117499999985 Q71.5108275 -56.00254749999999 71.5108275 -61.89204249999999 Q71.5108275 -67.78153749999998 67.68323625 -71.61993249999999 Q63.85580625 -75.45848875 57.966311250000004 -75.45848875 Q52.07681625 -75.45848875 48.23826 -71.64540999999998 Q44.399865000000005 -67.83216999999998 44.399865000000005 -61.962992499999984 Q44.399865000000005 -56.05624374999998 48.21294375 -52.201884999999976 Q52.0260225 -48.34752624999999 57.8952 -48.34752624999999 Z"/></g><g id="Medium-L" transform="matrix(1 0 0 1 1674.31 1556)"><path d="M5.2406250000000005 17.835278750000015 V1.6365875000000116 Q5.2406250000000005 -4.288704999999986 8.28567 -9.088472499999988 Q11.33055375 -13.888401249999987 16.74549 -16.304087499999987 Q28.5938175 -21.464087499999984 38.141591250000005 -23.76028749999999 Q47.68952625000001 -26.056326249999984 57.805222500000006 -26.056326249999984 Q67.9949325 -26.056326249999984 77.44386 -23.779476249999988 Q86.8927875 -21.50278749999999 98.741115 -16.304087499999987 Q104.14573125000001 -13.937743749999981 107.2764 -9.135073749999982 Q110.40723000000001 -4.3322424999999924 110.40723000000001 1.6344912500000106 V17.835278750000015 H5.2406250000000005 Z M120.50631750000001 17.835278750000015 V1.713826250000018 Q120.50631750000001 -8.522162499999986 115.3656675 -15.20694249999999 Q110.22485625000002 -21.89188374999999 101.76277875 -26.34722124999999 Q112.5805575 -25.018682499999983 122.166225 -22.557846249999983 Q131.75173125 -20.097009999999983 137.80215375 -16.949087499999983 Q143.23902 -13.885337499999984 146.3991975 -9.069283749999983 Q149.55937500000002 -4.253229999999988 149.55937500000002 1.8315387500000142 V17.835278750000015 H120.50631750000001 Z M57.8142525 -35.892576249999976 Q46.93068375 -35.892576249999976 40.0425675 -42.78069249999999 Q33.15445125 -49.66896999999999 33.15445125 -60.56205249999998 Q33.15445125 -71.455135 40.04434125 -78.34341249999999 Q46.93423125 -85.23152874999998 57.80635125 -85.23152874999998 Q68.67847125 -85.23152874999998 75.5859375 -78.34212249999999 Q82.49340375 -71.45271624999998 82.49340375 -60.58140249999998 Q82.49340375 -49.66896999999999 75.59545125000001 -42.78069249999999 Q68.69766 -35.892576249999976 57.8142525 -35.892576249999976 Z M117.2813175 -60.58172499999999 Q117.2813175 -49.70750874999999 110.3759475 -42.80004249999999 Q103.47041625 -35.892576249999976 92.5829775 -35.892576249999976 Q90.76843124999999 -35.892576249999976 88.63606125000001 -36.15363999999998 Q86.50369125 -36.41486499999999 84.61416375 -37.09840374999999 Q88.5614025 -41.20673124999999 90.5770275 -47.183139999999995 Q92.5926525 -53.159387499999994 92.5926525 -60.55640874999999 Q92.5926525 -67.95326874999998 90.57106125000001 -73.63136499999999 Q88.54930875000001 -79.30946124999998 84.61416375 -84.03069999999998 Q86.4264525 -84.54798999999998 88.59333000000001 -84.88983999999998 Q90.7602075 -85.23152874999998 92.5829775 -85.23152874999998 Q103.45622625000001 -85.23152874999998 110.3688525 -78.32325624999999 Q117.2813175 -71.4148225 117.2813175 -60.58172499999999 Z M16.2265875 6.849316250000015 H99.38256750000001 V1.7909037500000125 Q99.38256750000001 -0.7641024999999857 97.85069250000001 -3.162534999999984 Q96.31881750000001 -5.560806249999985 94.0613175 -6.517018749999984 Q82.60563375000001 -11.56124124999998 74.82000000000001 -13.296452499999987 Q67.03436625 -15.031663749999979 57.8045775 -15.031663749999979 Q48.65186625 -15.031663749999979 40.72788 -13.296452499999987 Q32.80389375 -11.56124124999998 21.3865875 -6.517018749999984 Q19.167787500000003 -5.566449999999989 17.697187500000002 -3.1664049999999833 Q16.2265875 -0.7663599999999846 16.2265875 1.7909037500000125 V6.849316250000015 Z M57.79845 -46.45445124999999 Q63.9256275 -46.45445124999999 67.9284975 -50.44603375 Q71.93152875 -54.43761624999998 71.93152875 -60.557376249999976 Q71.93152875 -66.6772975 67.93994625 -70.67339499999999 Q63.948363750000006 -74.66965374999998 57.8284425 -74.66965374999998 Q51.708682499999995 -74.66965374999998 47.712423750000006 -70.68419874999998 Q43.716326249999995 -66.69874374999998 43.716326249999995 -60.58752999999999 Q43.716326249999995 -54.4603525 47.701781249999996 -50.45732124999998 Q51.68723625 -46.45445124999999 57.79845 -46.45445124999999 Z"/></g><g id="Regular-L" transform="matrix(1 0 0 1 1378.56 1556)"><path d="M6.1275 16.370000000000015 V1.2125000000000128 Q6.1275 -4.431249999999984 9.030000000000001 -9.026874999999983 Q11.932500000000001 -13.622499999999988 17.0925 -15.879999999999988 Q28.86375 -21.039999999999985 38.296875 -23.297499999999985 Q47.730000000000004 -25.554999999999993 57.7275 -25.554999999999993 Q67.72500000000001 -25.554999999999993 77.0775 -23.297499999999985 Q86.43 -21.039999999999985 98.20125 -15.879999999999988 Q103.36125 -13.622499999999988 106.344375 -9.026874999999983 Q109.3275 -4.431249999999984 109.3275 1.2125000000000128 V16.370000000000015 H6.1275 Z M119.0025 16.370000000000015 V1.2125000000000128 Q119.0025 -8.946249999999985 113.8425 -15.476874999999986 Q108.6825 -22.00749999999998 100.2975 -26.03874999999998 Q111.42375 -24.748749999999987 121.26 -22.249374999999986 Q131.09625 -19.749999999999986 137.22375 -16.524999999999984 Q142.54500000000002 -13.461249999999986 145.60875000000001 -8.946249999999985 Q148.6725 -4.431249999999984 148.6725 1.2125000000000128 V16.370000000000015 H119.0025 Z M57.7275 -35.391249999999985 Q47.085 -35.391249999999985 40.3125 -42.16374999999999 Q33.54 -48.93624999999999 33.54 -59.578749999999985 Q33.54 -70.22124999999998 40.3125 -76.99374999999999 Q47.085 -83.76624999999999 57.7275 -83.76624999999999 Q68.37 -83.76624999999999 75.1425 -76.99374999999999 Q81.915 -70.22124999999998 81.915 -59.578749999999985 Q81.915 -48.93624999999999 75.1425 -42.16374999999999 Q68.37 -35.391249999999985 57.7275 -35.391249999999985 Z M115.7775 -59.578749999999985 Q115.7775 -48.93624999999999 109.00500000000001 -42.16374999999999 Q102.2325 -35.391249999999985 91.59 -35.391249999999985 Q89.81625 -35.391249999999985 87.639375 -35.63312499999999 Q85.4625 -35.874999999999986 83.68875 -36.51999999999998 Q87.55875 -40.55124999999998 89.574375 -46.436874999999986 Q91.59 -52.32249999999999 91.59 -59.578749999999985 Q91.59 -66.835 89.574375 -72.398125 Q87.55875 -77.96124999999999 83.68875 -82.63749999999999 Q85.4625 -83.12124999999999 87.639375 -83.44375 Q89.81625 -83.76624999999999 91.59 -83.76624999999999 Q102.2325 -83.76624999999999 109.00500000000001 -76.99374999999999 Q115.7775 -70.22124999999998 115.7775 -59.578749999999985 Z M15.8025 6.6950000000000145 H99.6525 V1.2125000000000128 Q99.6525 -1.3674999999999855 98.120625 -3.7862499999999883 Q96.58875 -6.204999999999984 94.33125 -7.172499999999985 Q82.72125 -12.332499999999989 74.82000000000001 -14.106249999999989 Q66.91875 -15.879999999999988 57.7275 -15.879999999999988 Q48.53625 -15.879999999999988 40.554375 -14.106249999999989 Q32.5725 -12.332499999999989 20.962500000000002 -7.172499999999985 Q18.705000000000002 -6.204999999999984 17.25375 -3.7862499999999883 Q15.8025 -1.3674999999999855 15.8025 1.2125000000000128 V6.6950000000000145 Z M57.7275 -45.06624999999998 Q64.01625 -45.06624999999998 68.128125 -49.17812499999998 Q72.24000000000001 -53.28999999999999 72.24000000000001 -59.578749999999985 Q72.24000000000001 -65.86749999999999 68.128125 -69.97937499999999 Q64.01625 -74.09124999999999 57.7275 -74.09124999999999 Q51.43875 -74.09124999999999 47.326875 -69.97937499999999 Q43.215 -65.86749999999999 43.215 -59.578749999999985 Q43.215 -53.28999999999999 47.326875 -49.17812499999998 Q51.43875 -45.06624999999998 57.7275 -45.06624999999998 Z"/></g><g id="Light-L" transform="matrix(1 0 0 1 1082.77 1556)"><path d="M11.3374875 11.904342500000016 V-0.3380799999999837 Q11.3374875 -5.423582499999988 13.96086375 -9.336958749999987 Q16.58424 -13.250334999999986 21.30676875 -15.327234999999988 Q31.778827500000002 -19.92350499999999 40.436662500000004 -22.181004999999985 Q49.0944975 -24.438504999999992 59.74328625 -24.438504999999992 Q70.392075 -24.438504999999992 78.96928500000001 -22.181004999999985 Q87.546495 -19.92350499999999 98.080635 -15.327234999999988 Q102.7410825 -13.250334999999986 105.41396250000001 -9.336958749999987 Q108.08700375000001 -5.423582499999988 108.08700375000001 -0.3380799999999837 V11.904342500000016 H11.3374875 Z M118.630335 11.904342500000016 V-0.15199749999998602 Q118.630335 -8.760167499999987 114.621015 -14.51437374999999 Q110.61185625 -20.268579999999986 104.14299 -23.92992249999999 Q112.7263275 -22.70200374999999 120.45375 -20.57479374999999 Q128.1811725 -18.447422499999988 133.38067875000002 -15.779218749999984 Q137.95517999999998 -13.21308624999999 140.70884625000002 -9.184416249999984 Q143.4625125 -5.155584999999988 143.4625125 -0.15199749999998602 V11.904342500000016 H118.630335 Z M59.74328625 -37.31399499999998 Q50.40013875 -37.31399499999998 44.357940000000006 -43.35619374999999 Q38.3159025 -49.398392499999986 38.3159025 -58.741378749999996 Q38.3159025 -68.08452625 44.357940000000006 -74.09576499999999 Q50.40013875 -80.1068425 59.74328625 -80.1068425 Q69.08643375 -80.1068425 75.09751125 -74.09576499999999 Q81.10875 -68.08452625 81.10875 -58.741378749999996 Q81.10875 -49.398392499999986 75.09751125 -43.35619374999999 Q69.08643375 -37.31399499999998 59.74328625 -37.31399499999998 Z M110.69151375 -58.741378749999996 Q110.69151375 -49.398392499999986 104.68043625000001 -43.35619374999999 Q98.66919750000001 -37.31399499999998 89.30395874999999 -37.31399499999998 Q88.20358875000001 -37.31399499999998 86.95712625 -37.462828749999986 Q85.71066375 -37.61166249999998 84.6191625 -38.00849874999999 Q88.07491125 -41.77707249999999 89.86349625 -47.057364999999976 Q91.65208125 -52.33781875 91.65208125 -58.718158749999986 Q91.65208125 -65.09833749999999 89.79141750000001 -70.10321499999999 Q87.930915 -75.1080925 84.6191625 -79.47425874999999 Q85.6485825 -79.71000624999999 86.95712625 -79.90834375 Q88.26567 -80.1068425 89.29509 -80.1068425 Q98.66919750000001 -80.1068425 104.68043625000001 -74.09576499999999 Q110.69151375 -68.08452625 110.69151375 -58.741378749999996 Z M18.6556575 4.586172500000018 H100.768995 V-0.3380799999999837 Q100.768995 -2.918079999999982 99.29904 -5.1817074999999875 Q97.82924625 -7.445496249999984 95.07558 -8.78516124999998 Q84.95407875 -13.510914999999983 77.23891125 -15.31578624999998 Q69.52374375 -17.12049624999998 59.74328625 -17.12049624999998 Q49.96282875 -17.12049624999998 42.197996249999996 -15.31578624999998 Q34.43316375 -13.510914999999983 24.31182375 -8.78516124999998 Q21.5581575 -7.445496249999984 20.106907500000002 -5.1817074999999875 Q18.6556575 -2.918079999999982 18.6556575 -0.3380799999999837 V4.586172500000018 Z M59.712326250000004 -44.632003749999996 Q65.7529125 -44.632003749999996 69.77174624999999 -48.650998749999985 Q73.79058 -52.669832499999984 73.79058 -58.71041874999999 Q73.79058 -64.75100499999999 69.77174624999999 -68.76983874999999 Q65.7529125 -72.78867249999999 59.712326250000004 -72.78867249999999 Q53.671578749999995 -72.78867249999999 49.652744999999996 -68.76983874999999 Q45.63391125 -64.75100499999999 45.63391125 -58.71041874999999 Q45.63391125 -52.669832499999984 49.652744999999996 -48.650998749999985 Q53.671578749999995 -44.632003749999996 59.712326250000004 -44.632003749999996 Z"/></g><g id="Thin-L" transform="matrix(1 0 0 1 787.282 1556)"><path d="M16.54666875 7.4393300000000195 V-1.8884987499999824 Q16.54666875 -6.415914999999984 18.89092125 -9.647042499999984 Q21.235335000000003 -12.878331249999981 25.52023125 -14.774469999999987 Q34.6935825 -18.807332499999987 42.576127500000005 -21.064832499999987 Q50.458833750000004 -23.322332499999987 61.75875 -23.322332499999987 Q73.05866625 -23.322332499999987 80.86058625 -21.064832499999987 Q88.6626675 -18.807332499999987 97.96002 -14.774469999999987 Q102.120915 -12.878331249999981 104.4838725 -9.647042499999984 Q106.84666875 -6.415914999999984 106.84666875 -1.8884987499999824 V7.4393300000000195 H16.54666875 Z M118.25833125 7.4393300000000195 V-1.516333749999987 Q118.25833125 -8.57408499999999 115.39953 -13.552033749999985 Q112.54089 -18.52998249999999 107.987835 -21.82141749999999 Q114.0285825 -20.655579999999986 119.64750000000001 -18.900373749999986 Q125.2664175 -17.145167499999985 129.53841375000002 -15.033598749999982 Q133.36616625 -12.965083749999984 135.80974875 -9.42258249999999 Q138.25333125 -5.879919999999984 138.25333125 -1.516333749999987 V7.4393300000000195 H118.25833125 Z M61.75875 -39.23641749999999 Q53.714793750000005 -39.23641749999999 48.402896250000005 -44.54831499999999 Q43.090837500000006 -49.86037374999998 43.090837500000006 -57.90416874999998 Q43.090837500000006 -65.94812499999999 48.402896250000005 -71.19810249999999 Q53.714793750000005 -76.44807999999999 61.75875 -76.44807999999999 Q69.80270625 -76.44807999999999 75.05252250000001 -71.19810249999999 Q80.30250000000001 -65.94812499999999 80.30250000000001 -57.90416874999998 Q80.30250000000001 -49.86037374999998 75.05252250000001 -44.54831499999999 Q69.80270625 -39.23641749999999 61.75875 -39.23641749999999 Z M105.60633375 -57.90416874999998 Q105.60633375 -49.86037374999998 100.3565175 -44.54831499999999 Q95.10654 -39.23641749999999 87.01824 -39.23641749999999 Q86.59125 -39.23641749999999 86.27503875000001 -39.29220999999998 Q85.95866625000001 -39.34800249999999 85.54925250000001 -39.49683624999999 Q88.59091124999999 -43.002572499999985 90.15245625000001 -47.677854999999994 Q91.71400125000001 -52.3531375 91.71400125000001 -57.85756749999999 Q91.71400125000001 -63.36199749999999 90.00846 -67.80878874999999 Q88.30291875 -72.25557999999998 85.54925250000001 -76.31150124999999 Q85.834665 -76.29924624999998 86.27503875000001 -76.37358249999998 Q86.71525125000001 -76.44807999999999 87.00066375 -76.44807999999999 Q95.10654 -76.44807999999999 100.3565175 -71.19810249999999 Q105.60633375 -65.94812499999999 105.60633375 -57.90416874999998 Z M21.50817 2.477667500000017 H101.88516750000001 V-1.8884987499999824 Q101.88516750000001 -4.468498749999988 100.47729375 -6.577164999999987 Q99.06958125 -8.685831249999985 95.81974875 -10.397499999999987 Q87.18658500000001 -14.689168749999986 79.6575 -16.524999999999984 Q72.12825375 -18.360831249999983 61.75875 -18.360831249999983 Q51.389085 -18.360831249999983 43.841295 -16.524999999999984 Q36.29366625 -14.689168749999986 27.660502500000003 -10.397499999999987 Q24.41067 -8.685831249999985 22.959419999999998 -6.577164999999987 Q21.50817 -4.468498749999988 21.50817 -1.8884987499999824 V2.477667500000017 Z M61.69666875 -44.197918749999985 Q67.4892525 -44.197918749999985 71.415045 -48.12387249999999 Q75.34099875 -52.04966499999999 75.34099875 -57.84224874999998 Q75.34099875 -63.63483249999999 71.415045 -67.56062499999999 Q67.4892525 -71.48641749999999 61.69666875 -71.48641749999999 Q55.904085 -71.48641749999999 51.9782925 -67.56062499999999 Q48.0525 -63.63483249999999 48.0525 -57.84224874999998 Q48.0525 -52.04966499999999 51.9782925 -48.12387249999999 Q55.904085 -44.197918749999985 61.69666875 -44.197918749999985 Z"/></g><g id="Ultralight-L" transform="matrix(1 0 0 1 491.205 1556)"><path d="M19.6725 4.760000000000012 V-2.818749999999987 Q19.6725 -7.011249999999983 21.849375000000002 -9.833124999999988 Q24.02625 -12.654999999999987 28.04863125 -14.442778749999981 Q36.4425 -18.13749999999999 43.86 -20.39499999999999 Q51.2775 -22.65249999999999 62.968125 -22.65249999999999 Q74.65875 -22.65249999999999 81.995625 -20.39499999999999 Q89.3325 -18.13749999999999 97.88761875 -14.442778749999981 Q101.74875 -12.654999999999987 103.925625 -9.833124999999988 Q106.1025 -7.011249999999983 106.1025 -2.818749999999987 V4.760000000000012 H19.6725 Z M118.035 4.760000000000012 V-2.3349999999999866 Q118.035 -8.462499999999984 115.86667125 -12.974597499999987 Q113.6983425 -17.486694999999983 110.295 -20.556249999999984 Q114.81 -19.427499999999988 119.16375000000001 -17.89562499999999 Q123.5175 -16.36374999999999 127.2327 -14.586129999999983 Q130.6125 -12.816249999999982 132.87 -9.565449999999984 Q135.1275 -6.314488749999981 135.1275 -2.3349999999999866 V4.760000000000012 H118.035 Z M62.968125 -40.389999999999986 Q55.7038125 -40.389999999999986 50.830031250000005 -45.263781249999994 Q45.956250000000004 -50.13756249999999 45.956250000000004 -57.40187499999999 Q45.956250000000004 -64.66618749999998 50.830031250000005 -69.45934374999999 Q55.7038125 -74.25249999999998 62.968125 -74.25249999999998 Q70.2324375 -74.25249999999998 75.02559375 -69.45934374999999 Q79.81875000000001 -64.66618749999998 79.81875000000001 -57.40187499999999 Q79.81875000000001 -50.13756249999999 75.02559375 -45.263781249999994 Q70.2324375 -40.389999999999986 62.968125 -40.389999999999986 Z M102.555 -57.40187499999999 Q102.555 -50.13756249999999 97.76184375 -45.263781249999994 Q92.9686875 -40.389999999999986 85.64680875 -40.389999999999986 Q85.62375 -40.389999999999986 85.86562500000001 -40.389999999999986 Q86.1075 -40.389999999999986 86.1075 -40.389999999999986 Q88.90051125000001 -43.738033749999985 90.32596124999999 -48.05018124999998 Q91.75125 -52.362328749999975 91.75125 -57.34124499999999 Q91.75125 -62.31999999999999 90.13875 -66.43187499999999 Q88.52625 -70.54374999999999 86.1075 -74.41375 Q85.94625 -74.25249999999998 85.86562500000001 -74.25249999999998 Q85.785 -74.25249999999998 85.62375 -74.25249999999998 Q92.9686875 -74.25249999999998 97.76184375 -69.45934374999999 Q102.555 -64.66618749999998 102.555 -57.40187499999999 Z M23.22 1.2125000000000128 H102.555 V-2.818749999999987 Q102.555 -5.3987499999999855 101.184375 -7.4143749999999855 Q99.81375 -9.429999999999986 96.26625 -11.364999999999988 Q88.52625 -15.396249999999988 81.10875 -17.250624999999985 Q73.69125 -19.104999999999983 62.968125 -19.104999999999983 Q52.245000000000005 -19.104999999999983 44.8275 -17.250624999999985 Q37.410000000000004 -15.396249999999988 29.67 -11.364999999999988 Q26.122500000000002 -9.429999999999986 24.67125 -7.4143749999999855 Q23.22 -5.3987499999999855 23.22 -2.818749999999987 V1.2125000000000128 Z M62.8875 -43.937499999999986 Q68.53125 -43.937499999999986 72.40125 -47.80749999999999 Q76.27125000000001 -51.67749999999998 76.27125000000001 -57.32124999999999 Q76.27125000000001 -62.96499999999999 72.40125 -66.835 Q68.53125 -70.70499999999998 62.8875 -70.70499999999998 Q57.24375 -70.70499999999998 53.37375 -66.835 Q49.503750000000004 -62.96499999999999 49.503750000000004 -57.32124999999999 Q49.503750000000004 -51.67749999999998 53.37375 -47.80749999999999 Q57.24375 -43.937499999999986 62.8875 -43.937499999999986 Z"/></g><g id="Bold-M" transform="matrix(1 0 0 1 2281.8 1126)"><path d="M1.125 11.14500000000001 V-7.35499999999999 Q1.125 -12.767749999999992 3.961875 -17.30487499999999 Q6.798875 -21.84199999999999 11.5 -24.22999999999999 Q19.625 -28.22999999999999 28.119875 -30.29249999999999 Q36.61475 -32.35499999999999 45.375 -32.35499999999999 Q54.375 -32.35499999999999 62.875 -30.35499999999999 Q71.375 -28.35499999999999 79.25 -24.35499999999999 Q83.951125 -21.985249999999986 86.788125 -17.48262499999999 Q89.625 -12.97999999999999 89.625 -7.361874999999991 V11.14500000000001 H1.125 Z M101.5 11.14500000000001 V-7.97999999999999 Q101.5 -13.97999999999999 98.5625 -19.66749999999999 Q95.625 -25.35499999999999 89.625 -30.85499999999999 Q94.625 -29.85499999999999 99.25 -28.22999999999999 Q103.875 -26.60499999999999 108.25 -24.35499999999999 Q113.25 -21.85499999999999 116.0625 -17.37899999999999 Q118.875 -12.903124999999989 118.875 -7.60499999999999 V11.14500000000001 H101.5 Z M45.375 -37.35499999999999 Q36.125 -37.35499999999999 29.6875 -43.79249999999999 Q23.25 -50.22999999999999 23.25 -59.47999999999999 Q23.25 -68.72999999999999 29.6875 -75.16749999999999 Q36.125 -81.60499999999999 45.375 -81.60499999999999 Q54.625 -81.60499999999999 61.0625 -75.16749999999999 Q67.5 -68.72999999999999 67.5 -59.47999999999999 Q67.5 -50.22999999999999 61.0625 -43.79249999999999 Q54.625 -37.35499999999999 45.375 -37.35499999999999 Z M101.5 -59.48112499999999 Q101.5 -50.35499999999999 95.006625 -43.85499999999999 Q88.513125 -37.35499999999999 79.39475 -37.35499999999999 Q77.875 -37.35499999999999 75.875 -37.72999999999999 Q73.875 -38.10499999999999 72.0 -38.72999999999999 Q75.625 -42.97999999999999 77.5 -48.33649999999999 Q79.375 -53.692999999999984 79.375 -59.46149999999999 Q79.375 -65.22999999999999 77.5 -70.60499999999999 Q75.625 -75.97999999999999 72.0 -80.22999999999999 Q73.875 -80.97999999999999 75.625 -81.29249999999999 Q77.375 -81.60499999999999 79.316125 -81.60499999999999 Q88.467 -81.60499999999999 94.9835 -75.10612499999999 Q101.5 -68.60725 101.5 -59.48112499999999 Z M16.875 -4.60499999999999 H73.875 V-6.72999999999999 Q73.875 -7.983624999999989 73.1875 -9.009374999999991 Q72.5 -10.035124999999987 71.375 -10.60499999999999 Q65.375 -13.47999999999999 58.875 -15.04249999999999 Q52.375 -16.60499999999999 45.375 -16.60499999999999 Q38.625 -16.60499999999999 31.875 -15.04249999999999 Q25.125 -13.47999999999999 19.375 -10.60499999999999 Q18.25 -10.035124999999987 17.5625 -9.009374999999991 Q16.875 -7.983624999999989 16.875 -6.72999999999999 V-4.60499999999999 Z M45.355125 -51.22999999999999 Q48.75 -51.22999999999999 51.1875 -53.64762499999999 Q53.625 -56.065124999999995 53.625 -59.46012499999999 Q53.625 -62.85499999999999 51.207375 -65.29249999999999 Q48.789875 -67.72999999999999 45.394875 -67.72999999999999 Q42.0 -67.72999999999999 39.5625 -65.31237499999999 Q37.125 -62.894874999999985 37.125 -59.49987499999999 Q37.125 -56.10499999999999 39.542625 -53.66749999999999 Q41.960125 -51.22999999999999 45.355125 -51.22999999999999 Z"/></g><g id="Semibold-M" transform="matrix(1 0 0 1 1985.97 1126)"><path d="M2.809625 8.37350000000001 V-8.170124999999992 Q2.809625 -13.07737499999999 5.36425 -17.190749999999987 Q7.918875 -21.30424999999999 12.152125 -23.46912499999999 Q20.114125 -27.414874999999988 28.39375 -29.422999999999988 Q36.6735 -31.431124999999987 45.212 -31.431124999999987 Q53.885875 -31.431124999999987 62.1685 -29.45837499999999 Q70.451125 -27.485499999999988 78.27175 -23.539874999999988 Q82.505125 -21.385124999999988 85.059625 -17.29124999999999 Q87.61425 -13.197374999999987 87.61425 -8.173999999999992 V8.37350000000001 H2.809625 Z M98.674125 8.37350000000001 V-8.958249999999992 Q98.674125 -14.740874999999988 95.68225 -20.15662499999999 Q92.690375 -25.572374999999987 86.8535 -30.257249999999992 Q92.45125 -29.36587499999999 97.511 -27.65937499999999 Q102.57075 -25.95287499999999 107.163125 -23.539874999999988 Q111.94575 -21.039874999999988 114.568 -17.17837499999999 Q117.190375 -13.316874999999989 117.190375 -8.74624999999999 V8.37350000000001 H98.674125 Z M45.212 -36.43112499999999 Q36.39675 -36.43112499999999 30.20375 -42.62412499999999 Q24.010875 -48.81699999999999 24.010875 -57.632249999999985 Q24.010875 -66.44749999999999 30.20375 -72.64049999999999 Q36.39675 -78.83349999999999 45.212 -78.83349999999999 Q54.02725 -78.83349999999999 60.220125 -72.64049999999999 Q66.413125 -66.44749999999999 66.413125 -57.632249999999985 Q66.413125 -48.81699999999999 60.220125 -42.62412499999999 Q54.02725 -36.43112499999999 45.212 -36.43112499999999 Z M98.674125 -57.632874999999984 Q98.674125 -48.88774999999998 92.4495 -42.65937499999998 Q86.225 -36.43112499999999 77.484125 -36.43112499999999 Q76.02725 -36.43112499999999 73.973 -36.77899999999999 Q71.918625 -37.12674999999999 70.261 -37.64312499999999 Q73.77725 -41.78437499999998 75.625125 -46.931625 Q77.473 -52.078749999999985 77.473 -57.62187499999999 Q77.473 -63.164874999999995 75.625125 -68.32249999999999 Q73.77725 -73.48012499999999 70.261 -77.62149999999998 Q72.081625 -78.31712499999999 73.831625 -78.57524999999998 Q75.581625 -78.83349999999999 77.439625 -78.83349999999999 Q86.198875 -78.83349999999999 92.4365 -72.60574999999999 Q98.674125 -66.37812499999998 98.674125 -57.632874999999984 Z M16.059875 -4.876749999999991 H74.364125 V-7.816874999999989 Q74.364125 -9.123249999999992 73.676625 -10.192249999999987 Q72.989125 -11.261124999999993 71.864125 -11.854874999999993 Q65.538 -14.94724999999999 58.875 -16.56412499999999 Q52.212 -18.18099999999999 45.212 -18.18099999999999 Q38.35325 -18.18099999999999 31.548875 -16.56412499999999 Q24.744625 -14.94724999999999 18.559875 -11.854874999999993 Q17.434875 -11.261124999999993 16.747375 -10.192249999999987 Q16.059875 -9.123249999999992 16.059875 -7.816874999999989 V-4.876749999999991 Z M45.20075 -48.62149999999998 Q48.913 -48.62149999999998 51.567875 -51.26512499999998 Q54.22275 -53.90874999999998 54.22275 -57.620999999999995 Q54.22275 -61.33337499999999 51.579125 -63.988249999999994 Q48.9355 -66.64312499999998 45.22325 -66.64312499999998 Q41.510875 -66.64312499999998 38.856 -63.99949999999998 Q36.201125 -61.35587499999998 36.201125 -57.64349999999999 Q36.201125 -53.93124999999999 38.84475 -51.27637499999999 Q41.488375 -48.62149999999998 45.20075 -48.62149999999998 Z"/></g><g id="Medium-M" transform="matrix(1 0 0 1 1689.91 1126)"><path d="M4.073375 6.29450000000001 V-8.781624999999991 Q4.073375 -13.30962499999999 6.416125 -17.10524999999999 Q8.759 -20.900874999999992 12.64125 -22.89849999999999 Q20.481 -26.80337499999999 28.59925 -28.770749999999992 Q36.717625 -30.73812499999999 45.089625 -30.73812499999999 Q53.519 -30.73812499999999 61.638625 -28.785749999999993 Q69.758125 -26.833249999999992 77.538 -22.92837499999999 Q81.420375 -20.934999999999988 83.76325 -17.147749999999988 Q86.106 -13.36037499999999 86.106 -8.783249999999988 V6.29450000000001 H4.073375 Z M96.554375 6.29450000000001 V-9.691999999999993 Q96.554375 -15.311499999999988 93.52175 -20.52349999999999 Q90.489125 -25.73537499999999 84.7745 -29.80874999999999 Q90.820625 -28.998999999999988 96.2065 -27.231374999999993 Q101.592375 -25.46374999999999 106.347875 -22.92837499999999 Q110.967375 -20.42837499999999 113.447 -17.027874999999987 Q115.926625 -13.627374999999986 115.926625 -9.60224999999999 V6.29450000000001 H96.554375 Z M45.089625 -35.73812499999999 Q36.6005 -35.73812499999999 30.591 -41.747624999999985 Q24.5815 -47.757249999999985 24.5815 -56.246374999999986 Q24.5815 -64.73549999999999 30.591 -70.74499999999999 Q36.6005 -76.7545 45.089625 -76.7545 Q53.57875 -76.7545 59.588375 -70.74499999999999 Q65.597875 -64.73549999999999 65.597875 -56.246374999999986 Q65.597875 -47.757249999999985 59.588375 -41.747624999999985 Q53.57875 -35.73812499999999 45.089625 -35.73812499999999 Z M96.554375 -56.246624999999995 Q96.554375 -47.78712499999999 90.5315 -41.762624999999986 Q84.508625 -35.73812499999999 76.051 -35.73812499999999 Q74.641375 -35.73812499999999 72.54625 -36.06562499999999 Q70.451125 -36.39299999999999 68.9565 -36.82787499999999 Q72.391375 -40.887624999999986 74.21875 -45.87774999999999 Q76.04625 -50.867874999999984 76.04625 -56.24187499999999 Q76.04625 -61.61587499999999 74.21875 -66.61049999999999 Q72.391375 -71.60499999999999 68.9565 -75.664875 Q70.736375 -76.31974999999998 72.486375 -76.53712499999999 Q74.236375 -76.7545 76.032125 -76.7545 Q84.4975 -76.7545 90.526 -70.73024999999998 Q96.554375 -64.70612499999999 96.554375 -56.246624999999995 Z M15.448375 -5.08049999999999 H74.731 V-8.632124999999988 Q74.731 -9.978124999999991 74.0435 -11.079374999999992 Q73.356 -12.180624999999992 72.231 -12.79249999999999 Q65.660375 -16.04787499999999 58.875 -17.705499999999986 Q52.089625 -19.36312499999999 45.089625 -19.36312499999999 Q38.1495 -19.36312499999999 31.304375 -17.705499999999986 Q24.45925 -16.04787499999999 17.948375 -12.79249999999999 Q16.823375 -12.180624999999992 16.135875 -11.079374999999992 Q15.448375 -9.978124999999991 15.448375 -8.632124999999988 V-5.08049999999999 Z M45.084875 -46.664874999999995 Q49.035375 -46.664874999999995 51.85325 -49.477999999999994 Q54.67125 -52.291124999999994 54.67125 -56.241624999999985 Q54.67125 -60.19199999999999 51.858 -63.009874999999994 Q49.044875 -65.82787499999999 45.094375 -65.82787499999999 Q41.144 -65.82787499999999 38.326125 -63.014624999999995 Q35.508125 -60.201499999999996 35.508125 -56.25112499999999 Q35.508125 -52.300625 38.321375 -49.482749999999996 Q41.1345 -46.664874999999995 45.084875 -46.664874999999995 Z"/></g><g id="Regular-M" transform="matrix(1 0 0 1 1394.06 1126)"><path d="M5.0 4.77000000000001 V-9.22999999999999 Q5.0 -13.47999999999999 7.1875 -17.04249999999999 Q9.375 -20.60499999999999 13.0 -22.47999999999999 Q20.75 -26.35499999999999 28.75 -28.29249999999999 Q36.75 -30.22999999999999 45.0 -30.22999999999999 Q53.25 -30.22999999999999 61.25 -28.29249999999999 Q69.25 -26.35499999999999 77.0 -22.47999999999999 Q80.625 -20.60499999999999 82.8125 -17.04249999999999 Q85.0 -13.47999999999999 85.0 -9.22999999999999 V4.77000000000001 H5.0 Z M95.0 4.77000000000001 V-10.22999999999999 Q95.0 -15.72999999999999 91.9375 -20.79249999999999 Q88.875 -25.85499999999999 83.25 -29.47999999999999 Q89.625 -28.72999999999999 95.25 -26.91749999999999 Q100.875 -25.10499999999999 105.75 -22.47999999999999 Q110.25 -19.97999999999999 112.625 -16.91749999999999 Q115.0 -13.85499999999999 115.0 -10.22999999999999 V4.77000000000001 H95.0 Z M45.0 -35.22999999999999 Q36.75 -35.22999999999999 30.875 -41.10499999999999 Q25.0 -46.97999999999999 25.0 -55.22999999999999 Q25.0 -63.47999999999999 30.875 -69.35499999999999 Q36.75 -75.22999999999999 45.0 -75.22999999999999 Q53.25 -75.22999999999999 59.125 -69.35499999999999 Q65.0 -63.47999999999999 65.0 -55.22999999999999 Q65.0 -46.97999999999999 59.125 -41.10499999999999 Q53.25 -35.22999999999999 45.0 -35.22999999999999 Z M95.0 -55.22999999999999 Q95.0 -46.97999999999999 89.125 -41.10499999999999 Q83.25 -35.22999999999999 75.0 -35.22999999999999 Q73.625 -35.22999999999999 71.5 -35.54249999999999 Q69.375 -35.85499999999999 68.0 -36.22999999999999 Q71.375 -40.22999999999999 73.1875 -45.10499999999999 Q75.0 -49.97999999999999 75.0 -55.22999999999999 Q75.0 -60.47999999999999 73.1875 -65.35499999999999 Q71.375 -70.22999999999999 68.0 -74.22999999999999 Q69.75 -74.85499999999999 71.5 -75.04249999999999 Q73.25 -75.22999999999999 75.0 -75.22999999999999 Q83.25 -75.22999999999999 89.125 -69.35499999999999 Q95.0 -63.47999999999999 95.0 -55.22999999999999 Z M15.0 -5.22999999999999 H75.0 V-9.22999999999999 Q75.0 -10.60499999999999 74.3125 -11.72999999999999 Q73.625 -12.85499999999999 72.5 -13.47999999999999 Q65.75 -16.85499999999999 58.875 -18.54249999999999 Q52.0 -20.22999999999999 45.0 -20.22999999999999 Q38.0 -20.22999999999999 31.125 -18.54249999999999 Q24.25 -16.85499999999999 17.5 -13.47999999999999 Q16.375 -12.85499999999999 15.6875 -11.72999999999999 Q15.0 -10.60499999999999 15.0 -9.22999999999999 V-5.22999999999999 Z M45.0 -45.22999999999999 Q49.125 -45.22999999999999 52.0625 -48.16749999999999 Q55.0 -51.10499999999999 55.0 -55.22999999999999 Q55.0 -59.35499999999999 52.0625 -62.29249999999999 Q49.125 -65.22999999999999 45.0 -65.22999999999999 Q40.875 -65.22999999999999 37.9375 -62.29249999999999 Q35.0 -59.35499999999999 35.0 -55.22999999999999 Q35.0 -51.10499999999999 37.9375 -48.16749999999999 Q40.875 -45.22999999999999 45.0 -45.22999999999999 Z"/></g><g id="Light-M" transform="matrix(1 0 0 1 1098.18 1126)"><path d="M8.990625 1.3082500000000117 V-9.806999999999988 Q8.990625 -13.672374999999988 10.985875 -16.705874999999992 Q12.981 -19.739499999999992 16.314875 -21.426374999999993 Q23.4425 -24.91262499999999 30.649125 -26.801999999999992 Q37.855875 -28.691374999999987 46.4905 -28.691374999999987 Q55.125125 -28.691374999999987 62.33175 -26.801999999999992 Q69.5385 -24.91262499999999 76.666125 -21.426374999999993 Q80.0 -19.739499999999992 81.995125 -16.705874999999992 Q83.99025 -13.672374999999988 83.99025 -9.806999999999988 V1.3082500000000117 H8.990625 Z M93.99025 1.3082500000000117 V-10.422374999999988 Q93.99025 -15.34537499999999 91.5795 -19.80599999999999 Q89.168625 -24.26662499999999 84.7405 -27.460624999999993 Q89.76925 -26.710624999999993 94.288375 -25.138499999999986 Q98.8075 -23.566374999999987 102.91325 -21.42224999999999 Q106.78825 -19.35499999999999 108.89875 -16.549249999999986 Q111.009375 -13.743374999999993 111.009375 -10.422374999999988 V1.3082500000000117 H93.99025 Z M46.4905 -36.76862499999999 Q39.271875 -36.76862499999999 34.13125 -41.90912499999999 Q28.990625 -47.04974999999999 28.990625 -54.26837499999999 Q28.990625 -61.48712499999999 34.13125 -66.627625 Q39.271875 -71.76825 46.4905 -71.76825 Q53.709125 -71.76825 58.84975 -66.627625 Q63.99025 -61.48712499999999 63.99025 -54.26837499999999 Q63.99025 -47.04974999999999 58.84975 -41.90912499999999 Q53.709125 -36.76862499999999 46.4905 -36.76862499999999 Z M89.663125 -54.26837499999999 Q89.663125 -47.04974999999999 84.5225 -41.90912499999999 Q79.381875 -36.76862499999999 72.16325 -36.76862499999999 Q71.317125 -36.76862499999999 70.0095 -36.96087499999999 Q68.701875 -37.15312499999999 67.85575 -37.38387499999999 Q70.8135 -40.93974999999999 72.401875 -45.273499999999984 Q73.99025 -49.60724999999999 73.99025 -54.27437499999999 Q73.99025 -58.941374999999994 72.370125 -63.23949999999999 Q70.75 -67.5375 67.85575 -71.152875 Q68.932625 -71.5375 70.0095 -71.652875 Q71.086375 -71.76825 72.16325 -71.76825 Q79.381875 -71.76825 84.5225 -66.627625 Q89.663125 -61.48712499999999 89.663125 -54.26837499999999 Z M16.4905 -6.191624999999991 H76.4905 V-9.806999999999988 Q76.4905 -11.37424999999999 75.706875 -12.595499999999987 Q74.923125 -13.816624999999988 73.22125 -14.730124999999987 Q67.048125 -17.91274999999999 60.50975 -19.552249999999987 Q53.97125 -21.191624999999988 46.4905 -21.191624999999988 Q39.00975 -21.191624999999988 32.47125 -19.552249999999987 Q25.932875 -17.91274999999999 19.75975 -14.730124999999987 Q18.057875 -13.816624999999988 17.274125 -12.595499999999987 Q16.4905 -11.37424999999999 16.4905 -9.806999999999988 V-6.191624999999991 Z M46.4905 -44.26837499999999 Q50.6155 -44.26837499999999 53.553 -47.20587499999999 Q56.4905 -50.14337499999999 56.4905 -54.26837499999999 Q56.4905 -58.39337499999999 53.553 -61.33087499999999 Q50.6155 -64.26837499999999 46.4905 -64.26837499999999 Q42.3655 -64.26837499999999 39.428 -61.33087499999999 Q36.4905 -58.39337499999999 36.4905 -54.26837499999999 Q36.4905 -50.14337499999999 39.428 -47.20587499999999 Q42.3655 -44.26837499999999 46.4905 -44.26837499999999 Z"/></g><g id="Thin-M" transform="matrix(1 0 0 1 802.565 1126)"><path d="M12.98075 -2.152999999999988 V-10.383874999999989 Q12.98075 -13.86462499999999 14.783625 -16.36937499999999 Q16.5865 -18.87424999999999 19.62925 -20.37299999999999 Q26.134625 -23.47037499999999 32.548 -25.31174999999999 Q38.9615 -27.15312499999999 47.98075 -27.15312499999999 Q57.0 -27.15312499999999 63.4135 -25.31174999999999 Q69.826875 -23.47037499999999 76.33225 -20.37299999999999 Q79.375 -18.87424999999999 81.177875 -16.36937499999999 Q82.98075 -13.86462499999999 82.98075 -10.383874999999989 V-2.152999999999988 H12.98075 Z M92.98075 -2.152999999999988 V-10.61462499999999 Q92.98075 -14.96074999999999 91.2215 -18.819624999999988 Q89.462125 -22.678499999999993 86.23075 -25.441624999999988 Q89.9135 -24.691624999999988 93.326875 -23.359874999999988 Q96.740375 -22.02812499999999 100.077 -20.36462499999999 Q103.327 -18.72999999999999 105.173125 -16.18099999999999 Q107.01925 -13.631874999999987 107.01925 -10.61462499999999 V-2.152999999999988 H92.98075 Z M47.98075 -38.30687499999999 Q41.79325 -38.30687499999999 37.387 -42.71312499999999 Q32.98075 -47.11937499999999 32.98075 -53.30687499999999 Q32.98075 -59.49449999999999 37.387 -63.90074999999999 Q41.79325 -68.30699999999999 47.98075 -68.30699999999999 Q54.16825 -68.30699999999999 58.5745 -63.90074999999999 Q62.98075 -59.49449999999999 62.98075 -53.30687499999999 Q62.98075 -47.11937499999999 58.5745 -42.71312499999999 Q54.16825 -38.30687499999999 47.98075 -38.30687499999999 Z M84.327 -53.30687499999999 Q84.327 -47.11937499999999 79.92075 -42.71312499999999 Q75.5145 -38.30687499999999 69.327 -38.30687499999999 Q69.009625 -38.30687499999999 68.51925 -38.37899999999999 Q68.028875 -38.45112499999999 67.7115 -38.53762499999999 Q70.252125 -41.64949999999999 71.616375 -45.44199999999999 Q72.98075 -49.23449999999998 72.98075 -53.31887499999999 Q72.98075 -57.40312499999999 71.552875 -61.12424999999999 Q70.125 -64.84537499999999 67.7115 -68.07624999999999 Q68.115375 -68.22037499999999 68.51925 -68.26374999999999 Q68.923125 -68.30699999999999 69.327 -68.30699999999999 Q75.5145 -68.30699999999999 79.92075 -63.90074999999999 Q84.327 -59.49449999999999 84.327 -53.30687499999999 Z M17.98075 -7.153124999999989 H77.98075 V-10.383874999999989 Q77.98075 -12.143499999999989 77.101 -13.46074999999999 Q76.221125 -14.778124999999989 73.94225 -15.97999999999999 Q68.346125 -18.97037499999999 62.14425 -20.56174999999999 Q55.94225 -22.15312499999999 47.98075 -22.15312499999999 Q40.01925 -22.15312499999999 33.81725 -20.56174999999999 Q27.615375 -18.97037499999999 22.01925 -15.97999999999999 Q19.740375 -14.778124999999989 18.8605 -13.46074999999999 Q17.98075 -12.143499999999989 17.98075 -10.383874999999989 V-7.153124999999989 Z M47.98075 -43.30687499999999 Q52.10575 -43.30687499999999 55.04325 -46.24437499999999 Q57.98075 -49.18187499999999 57.98075 -53.30687499999999 Q57.98075 -57.43187499999999 55.04325 -60.36937499999999 Q52.10575 -63.30687499999999 47.98075 -63.30687499999999 Q43.85575 -63.30687499999999 40.91825 -60.36937499999999 Q37.98075 -57.43187499999999 37.98075 -53.30687499999999 Q37.98075 -49.18187499999999 40.91825 -46.24437499999999 Q43.85575 -43.30687499999999 47.98075 -43.30687499999999 Z"/></g><g id="Ultralight-M" transform="matrix(1 0 0 1 506.415 1126)"><path d="M15.375 -4.22999999999999 V-10.72999999999999 Q15.375 -13.97999999999999 17.0625 -16.16749999999999 Q18.75 -18.35499999999999 21.618125 -19.74087499999999 Q27.75 -22.60499999999999 33.6875 -24.41749999999999 Q39.625 -26.22999999999999 48.875 -26.22999999999999 Q58.125 -26.22999999999999 64.0625 -24.41749999999999 Q70.0 -22.60499999999999 76.131875 -19.74087499999999 Q79.0 -18.35499999999999 80.6875 -16.16749999999999 Q82.375 -13.97999999999999 82.375 -10.72999999999999 V-4.22999999999999 H15.375 Z M92.375 -4.22999999999999 V-10.72999999999999 Q92.375 -14.72999999999999 91.006625 -18.227749999999993 Q89.63825 -21.72549999999999 87.125 -24.22999999999999 Q90.0 -23.47999999999999 92.75 -22.29249999999999 Q95.5 -21.10499999999999 98.375 -19.72999999999999 Q101.25 -18.35499999999999 102.9375 -15.959999999999987 Q104.625 -13.564874999999986 104.625 -10.72999999999999 V-4.22999999999999 H92.375 Z M48.875 -39.22999999999999 Q43.30625 -39.22999999999999 39.340625 -43.19562499999999 Q35.375 -47.161249999999995 35.375 -52.72999999999999 Q35.375 -58.298749999999984 39.340625 -62.26437499999999 Q43.30625 -66.22999999999999 48.875 -66.22999999999999 Q54.44375 -66.22999999999999 58.409375 -62.26437499999999 Q62.375 -58.298749999999984 62.375 -52.72999999999999 Q62.375 -47.161249999999995 58.409375 -43.19562499999999 Q54.44375 -39.22999999999999 48.875 -39.22999999999999 Z M81.125 -52.72999999999999 Q81.125 -47.161249999999995 77.159375 -43.19562499999999 Q73.19375 -39.22999999999999 67.625 -39.22999999999999 Q67.625 -39.22999999999999 67.625 -39.22999999999999 Q67.625 -39.22999999999999 67.625 -39.22999999999999 Q69.915125 -42.075374999999994 71.145125 -45.54312499999999 Q72.375 -49.010874999999984 72.375 -52.74549999999999 Q72.375 -56.47999999999999 71.0625 -59.85499999999999 Q69.75 -63.22999999999999 67.625 -66.22999999999999 Q67.625 -66.22999999999999 67.625 -66.22999999999999 Q67.625 -66.22999999999999 67.625 -66.22999999999999 Q73.19375 -66.22999999999999 77.159375 -62.26437499999999 Q81.125 -58.298749999999984 81.125 -52.72999999999999 Z M18.875 -7.72999999999999 H78.875 V-10.72999999999999 Q78.875 -12.60499999999999 77.9375 -13.97999999999999 Q77.0 -15.35499999999999 74.375 -16.72999999999999 Q69.125 -19.60499999999999 63.125 -21.16749999999999 Q57.125 -22.72999999999999 48.875 -22.72999999999999 Q40.625 -22.72999999999999 34.625 -21.16749999999999 Q28.625 -19.60499999999999 23.375 -16.72999999999999 Q20.75 -15.35499999999999 19.8125 -13.97999999999999 Q18.875 -12.60499999999999 18.875 -10.72999999999999 V-7.72999999999999 Z M48.875 -42.72999999999999 Q53.0 -42.72999999999999 55.9375 -45.66749999999999 Q58.875 -48.60499999999999 58.875 -52.72999999999999 Q58.875 -56.85499999999999 55.9375 -59.79249999999999 Q53.0 -62.72999999999999 48.875 -62.72999999999999 Q44.75 -62.72999999999999 41.8125 -59.79249999999999 Q38.875 -56.85499999999999 38.875 -52.72999999999999 Q38.875 -48.60499999999999 41.8125 -45.66749999999999 Q44.75 -42.72999999999999 48.875 -42.72999999999999 Z"/></g><g id="Bold-S" transform="matrix(1 0 0 1 2294.23 696)"><path d="M6.4106250000000005 -1.7961249999999875 V-14.420124999999988 Q6.4106250000000005 -17.88008724999999 8.155794375 -20.780352624999985 Q9.901062375 -23.68061799999999 12.919875000000001 -25.367499999999986 Q18.5415 -28.62212499999999 24.898768875000002 -30.39737499999999 Q31.25603775 -32.17262499999999 38.167875 -32.17262499999999 Q45.268875 -32.17262499999999 51.630187500000005 -30.44668749999999 Q57.9915 -28.72074999999999 63.415875 -25.46612499999999 Q66.43468762500001 -23.793642249999984 68.17995562499999 -20.920597374999986 Q69.92512500000001 -18.047552499999984 69.92512500000001 -14.425549374999989 V-1.7961249999999875 H6.4106250000000005 Z M78.5055 -1.7961249999999875 V-14.124249999999986 Q78.5055 -18.660999999999987 76.6809375 -22.704624999999986 Q74.856375 -26.748249999999985 71.305875 -30.495999999999988 Q74.067375 -29.50974999999999 76.87818750000001 -28.326249999999987 Q79.68900000000001 -27.142749999999985 82.549125 -25.46612499999999 Q85.113375 -24.18399999999999 86.69137500000001 -20.931248874999987 Q88.26937500000001 -17.678497749999988 88.26937500000001 -13.828374999999987 V-1.7961249999999875 H78.5055 Z M38.167875 -36.90662499999999 Q31.461375 -36.90662499999999 26.8753125 -41.49268749999999 Q22.289250000000003 -46.07874999999999 22.289250000000003 -52.78524999999999 Q22.289250000000003 -59.491749999999996 26.8753125 -64.0778125 Q31.461375 -68.66387499999999 38.167875 -68.66387499999999 Q44.874375 -68.66387499999999 49.460437500000005 -64.0778125 Q54.0465 -59.491749999999996 54.0465 -52.78524999999999 Q54.0465 -46.07874999999999 49.460437500000005 -41.49268749999999 Q44.874375 -36.90662499999999 38.167875 -36.90662499999999 Z M76.13850000000001 -52.786137624999995 Q76.13850000000001 -46.17737499999999 71.508352125 -41.54199999999999 Q66.878105625 -36.90662499999999 60.27545775 -36.90662499999999 Q59.37225 -36.90662499999999 58.7805 -37.00524999999999 Q58.188750000000006 -37.10387499999999 57.005250000000004 -37.49837499999999 Q59.668125 -40.55574999999999 61.1475 -44.43684099999999 Q62.626875000000005 -48.317931999999985 62.626875000000005 -52.77065349999998 Q62.626875000000005 -57.22337499999999 61.1475 -61.119062499999984 Q59.668125 -65.01474999999999 57.005250000000004 -68.07212499999999 Q57.892875000000004 -68.368 58.58325 -68.51593749999999 Q59.273625 -68.66387499999999 60.213422625 -68.66387499999999 Q66.841713 -68.66387499999999 71.49010650000001 -64.02938762499998 Q76.13850000000001 -59.39490024999999 76.13850000000001 -52.786137624999995 Z M18.048375 -13.433874999999986 H58.287375000000004 V-13.926999999999989 Q58.287375000000004 -14.469437499999987 57.989034375 -14.913249999999987 Q57.69069375000001 -15.357062499999987 57.2025 -15.603624999999987 Q53.158875 -17.87199999999999 48.32625 -19.20343749999999 Q43.493625 -20.534874999999985 38.167875 -20.534874999999985 Q33.039375 -20.534874999999985 28.009500000000003 -19.25274999999999 Q22.979625000000002 -17.970624999999988 19.13325 -15.603624999999987 Q18.645056250000003 -15.36840437499999 18.346715625 -14.945007249999989 Q18.048375 -14.521610124999988 18.048375 -13.936172124999988 V-13.433874999999986 Z M38.173102125 -47.06499999999999 Q40.534875 -47.06499999999999 42.2115 -48.74685212499999 Q43.888125 -50.42870424999999 43.888125 -52.790477124999995 Q43.888125 -55.152249999999995 42.206272875 -56.828875 Q40.524420750000004 -58.505499999999984 38.162647875000005 -58.505499999999984 Q35.800875000000005 -58.505499999999984 34.12425 -56.82364787499999 Q32.447625 -55.141795749999986 32.447625 -52.780022874999986 Q32.447625 -50.418249999999986 34.129477125 -48.74162499999999 Q35.81132925 -47.06499999999999 38.173102125 -47.06499999999999 Z"/></g><g id="Semibold-S" transform="matrix(1 0 0 1 1998.1 696)"><path d="M7.739794125 -3.9828384999999855 V-15.063258624999989 Q7.739794125 -18.12438137499999 9.26226825 -20.690406624999987 Q10.784742375 -23.25633324999999 13.434401625000001 -24.767169624999987 Q18.927419625000002 -27.978991374999985 25.114856250000003 -29.711339499999987 Q31.3023915 -31.44368762499999 38.03926800000001 -31.44368762499999 Q44.882955375 -31.44368762499999 51.072759 -29.73925037499999 Q57.26256262500001 -28.034714499999986 62.64403575 -24.822991374999987 Q65.293793625 -23.320143624999986 66.816169125 -20.76960249999999 Q68.33864325 -18.21906137499999 68.33864325 -15.06631599999999 V-3.9828384999999855 H7.739794125 Z M76.275884625 -3.9828384999999855 V-14.896089249999989 Q76.275884625 -19.261330374999986 74.40842025 -23.090544624999986 Q72.54095587500001 -26.919758874999985 69.1191615 -30.02437524999999 Q72.35228625 -29.12383037499999 75.5061165 -27.876026874999987 Q78.65994675 -26.62822337499999 81.691580625 -24.822991374999987 Q84.08432175 -23.540866374999986 85.5122145 -20.772955749999987 Q86.940205875 -18.005045124999988 86.940205875 -14.728821249999989 V-3.9828384999999855 H76.275884625 Z M38.03926800000001 -36.17768762499998 Q31.67578575 -36.17768762499998 27.282633750000002 -40.57083962499999 Q22.889580375 -44.96389299999999 22.889580375 -51.32737524999999 Q22.889580375 -57.69085749999999 27.282633750000002 -62.08400949999999 Q31.67578575 -66.4771615 38.03926800000001 -66.4771615 Q44.402750250000004 -66.4771615 48.795803625000005 -62.08400949999999 Q53.188955625 -57.69085749999999 53.188955625 -51.32737524999999 Q53.188955625 -44.96389299999999 48.795803625000005 -40.57083962499999 Q44.402750250000004 -36.17768762499998 38.03926800000001 -36.17768762499998 Z M73.90888462500001 -51.32786837499999 Q73.90888462500001 -45.019714749999984 69.4907805 -40.59865187499998 Q65.072775 -36.17768762499998 58.76797462500001 -36.17768762499998 Q57.91437525 -36.17768762499998 57.279822 -36.254910999999986 Q56.64517012500001 -36.33203574999999 55.633179 -36.64083062499999 Q58.21025025 -39.61240187499998 59.668223625 -43.328394624999994 Q61.126197000000005 -47.044288749999986 61.126197000000005 -51.319189374999986 Q61.126197000000005 -55.59399137499999 59.668223625 -59.318169999999995 Q58.21025025 -63.04234862499999 55.633179 -66.01401849999999 Q56.47790212500001 -66.26699162499999 57.168277125 -66.37202724999999 Q57.858652125000006 -66.4771615 58.732864125000006 -66.4771615 Q65.05216237500001 -66.4771615 69.4805235 -62.05659174999998 Q73.90888462500001 -57.63612062499999 73.90888462500001 -51.32786837499999 Z M17.405241375000003 -13.648285749999985 H58.673294625000004 V-14.784544374999985 Q58.673294625000004 -15.36860162499999 58.374954 -15.846439749999988 Q58.07661337500001 -16.324376499999985 57.588419625 -16.58977637499999 Q53.287482 -19.02966024999999 48.32625 -20.40399962499999 Q43.365018000000006 -21.77833899999999 38.03926800000001 -21.77833899999999 Q32.82496425 -21.77833899999999 27.752187375000002 -20.45331212499999 Q22.679509125 -19.128285249999987 18.490116375000003 -16.58977637499999 Q18.001922625 -16.33571837499999 17.703582 -15.87829562499999 Q17.405241375000003 -15.42077424999999 17.405241375000003 -14.793716499999988 V-13.648285749999985 Z M38.05130025 -45.00689349999998 Q40.663482 -45.00689349999998 42.511615875000004 -46.867059624999996 Q44.35974975 -48.72732437499999 44.35974975 -51.33950612499999 Q44.35974975 -53.95168787499999 42.499583625 -55.79982174999999 Q40.6394175 -57.64795562499998 38.027137125 -57.64795562499998 Q35.414955375 -57.64795562499998 33.5668215 -55.78778949999999 Q31.718687625 -53.92752474999999 31.718687625 -51.31534299999999 Q31.718687625 -48.703161249999994 33.578952375 -46.855027374999985 Q35.4391185 -45.00689349999998 38.05130025 -45.00689349999998 Z"/></g><g id="Medium-S" transform="matrix(1 0 0 1 1701.85 696)"><path d="M8.736892875 -5.623169499999989 V-15.54573212499999 Q8.736892875 -18.30772524999999 10.092197624999999 -20.62284849999999 Q11.447601 -22.938070374999988 13.820321250000001 -24.316946499999986 Q19.216884000000004 -27.496517874999988 25.27699575 -29.196714249999992 Q31.337206125 -30.89691062499999 37.942714125 -30.89691062499999 Q44.593491 -30.89691062499999 50.65468762500001 -29.20854924999999 Q56.71578562500001 -27.52008924999999 62.065107 -24.34051787499999 Q64.437925875 -22.964994999999988 65.79332925 -20.65638099999999 Q67.148634 -18.34776699999999 67.148634 -15.547014249999986 V-5.623169499999989 H8.736892875 Z M74.603401875 -5.623169499999989 V-15.475017999999992 Q74.603401875 -19.711553499999987 72.70378575 -23.380008999999987 Q70.804169625 -27.048365874999988 67.4788305 -29.67050874999999 Q71.065723125 -28.83436599999999 74.476866 -27.53833487499999 Q77.88800887500001 -26.24230374999999 81.048348375 -24.34051787499999 Q83.31238387500001 -23.05839287499999 84.6277455 -20.65421124999999 Q85.94310712500001 -18.25002962499999 85.94310712500001 -15.40420524999999 V-5.623169499999989 H74.603401875 Z M37.942714125 -35.63091062499999 Q31.8365445 -35.63091062499999 27.588174000000002 -39.879281124999984 Q23.3398035 -44.127750249999984 23.3398035 -50.233919874999984 Q23.3398035 -56.34008949999999 27.588174000000002 -60.58845999999998 Q31.8365445 -64.83683049999999 37.942714125 -64.83683049999999 Q44.04888375 -64.83683049999999 48.297352875 -60.58845999999998 Q52.545723375 -56.34008949999999 52.545723375 -50.233919874999984 Q52.545723375 -44.127750249999984 48.297352875 -39.879281124999984 Q44.04888375 -35.63091062499999 37.942714125 -35.63091062499999 Z M72.236401875 -50.23411712499999 Q72.236401875 -44.15132162499999 67.9774785 -39.89111612499998 Q63.718555125 -35.63091062499999 57.637239 -35.63091062499999 Q56.820919875 -35.63091062499999 56.15411625 -35.69205812499999 Q55.48731262500001 -35.753106999999986 54.60392850000001 -35.99759837499999 Q57.116794875 -38.904866124999984 58.55859375 -42.49688724999999 Q60.00049125 -46.08890837499998 60.00049125 -50.230369374999995 Q60.00049125 -54.37183037499999 58.55859375 -57.96740199999999 Q57.116794875 -61.56287499999999 54.60392850000001 -64.470241375 Q55.416499875 -64.69106274999999 56.106874874999995 -64.76394662499999 Q56.797249875 -64.83683049999999 57.622346625 -64.83683049999999 Q63.7097775 -64.83683049999999 67.973139 -60.57682224999998 Q72.236401875 -56.316912624999986 72.236401875 -50.23411712499999 Z M16.922767874999998 -13.809044499999985 H58.962759 V-15.427776624999986 Q58.962759 -16.04309799999999 58.664418375000004 -16.54647999999999 Q58.36607775 -17.049861999999987 57.877884 -17.329562499999987 Q53.384035875 -19.89805337499999 48.32625 -21.304544499999984 Q43.268464125 -22.711035624999987 37.942714125 -22.711035624999987 Q32.6642055 -22.711035624999987 27.559276875000002 -21.353856999999984 Q22.454348250000002 -19.996678374999988 18.007642875 -17.329562499999987 Q17.519449125 -17.061203874999986 17.2211085 -16.578237249999987 Q16.922767874999998 -16.09527062499999 16.922767874999998 -15.436948749999988 V-13.809044499999985 Z M37.959973500000004 -43.46311637499999 Q40.760035875 -43.46311637499999 42.736776750000004 -45.45701799999999 Q44.71361625 -47.45101824999999 44.71361625 -50.251080624999986 Q44.71361625 -53.051142999999996 42.719616 -55.027883874999986 Q40.72561575 -57.004723375 37.925553375 -57.004723375 Q35.125491000000004 -57.004723375 33.148750125 -55.010723125 Q31.171910625000002 -53.016722874999985 31.171910625000002 -50.21666049999999 Q31.171910625000002 -47.41659812499999 33.165910875 -45.439857249999996 Q35.159911125 -43.46311637499999 37.959973500000004 -43.46311637499999 Z"/></g><g id="Regular-S" transform="matrix(1 0 0 1 1405.73 696)"><path d="M9.468 -6.825999999999986 V-15.899499999999989 Q9.468 -18.442052499999985 10.7008125 -20.573338749999984 Q11.933625000000001 -22.704624999999986 14.103375 -23.986749999999986 Q19.429125 -27.142749999999985 25.395937500000002 -28.819374999999987 Q31.362750000000002 -30.495999999999988 37.872 -30.495999999999988 Q44.38125 -30.495999999999988 50.348062500000005 -28.819374999999987 Q56.314875 -27.142749999999985 61.640625 -23.986749999999986 Q63.810375 -22.704624999999986 65.0431875 -20.573338749999984 Q66.276 -18.442052499999985 66.276 -15.899499999999989 V-6.825999999999986 H9.468 Z M73.37700000000001 -6.825999999999986 V-15.899499999999989 Q73.37700000000001 -20.041749999999986 71.4538125 -23.592249999999986 Q69.530625 -27.142749999999985 66.276 -29.41112499999999 Q70.122375 -28.62212499999999 73.7221875 -27.29068749999999 Q77.322 -25.95924999999999 80.576625 -23.986749999999986 Q82.746375 -22.704624999999986 83.97918750000001 -20.56712537499999 Q85.212 -18.42962574999999 85.212 -15.899499999999989 V-6.825999999999986 H73.37700000000001 Z M37.872 -35.22999999999999 Q31.954500000000003 -35.22999999999999 27.812250000000002 -39.37224999999999 Q23.67 -43.51449999999999 23.67 -49.43199999999999 Q23.67 -55.34949999999999 27.812250000000002 -59.491749999999996 Q31.954500000000003 -63.633999999999986 37.872 -63.633999999999986 Q43.789500000000004 -63.633999999999986 47.93175 -59.491749999999996 Q52.074000000000005 -55.34949999999999 52.074000000000005 -49.43199999999999 Q52.074000000000005 -43.51449999999999 47.93175 -39.37224999999999 Q43.789500000000004 -35.22999999999999 37.872 -35.22999999999999 Z M71.01 -49.43199999999999 Q71.01 -43.51449999999999 66.86775 -39.37224999999999 Q62.725500000000004 -35.22999999999999 56.808 -35.22999999999999 Q56.019000000000005 -35.22999999999999 55.328625 -35.27931249999999 Q54.63825 -35.32862499999999 53.849250000000005 -35.525874999999985 Q56.314875 -38.38599999999999 57.744937500000006 -41.88718749999999 Q59.175000000000004 -45.38837499999999 59.175000000000004 -49.43199999999999 Q59.175000000000004 -53.475624999999994 57.744937500000006 -56.976812499999994 Q56.314875 -60.477999999999994 53.849250000000005 -63.33812499999999 Q54.63825 -63.53537499999999 55.328625 -63.58468749999999 Q56.019000000000005 -63.633999999999986 56.808 -63.633999999999986 Q62.725500000000004 -63.633999999999986 66.86775 -59.491749999999996 Q71.01 -55.34949999999999 71.01 -49.43199999999999 Z M16.569 -13.926999999999989 H59.175000000000004 V-15.899499999999989 Q59.175000000000004 -16.537702374999988 58.876659375 -17.059823124999987 Q58.57831875000001 -17.58194387499999 58.090125 -17.87199999999999 Q53.454750000000004 -20.534874999999985 48.32625 -21.96493749999999 Q43.19775 -23.39499999999999 37.872 -23.39499999999999 Q32.54625 -23.39499999999999 27.41775 -22.01424999999999 Q22.289250000000003 -20.63349999999999 17.653875 -17.87199999999999 Q17.165681250000002 -17.593285749999986 16.867340625 -17.091580374999985 Q16.569 -16.58987499999999 16.569 -15.908672124999988 V-13.926999999999989 Z M37.8929085 -42.33099999999999 Q40.83075 -42.33099999999999 42.901875000000004 -44.42303349999999 Q44.973 -46.51516562499999 44.973 -49.452908499999985 Q44.973 -52.39074999999998 42.8809665 -54.46187499999999 Q40.788834375 -56.53299999999999 37.8510915 -56.53299999999999 Q34.913250000000005 -56.53299999999999 32.842125 -54.44096649999999 Q30.771 -52.348834374999996 30.771 -49.41109149999999 Q30.771 -46.473249999999986 32.8630335 -44.40212499999999 Q34.955165625 -42.33099999999999 37.8929085 -42.33099999999999 Z"/></g><g id="Light-S" transform="matrix(1 0 0 1 1109.75 696)"><path d="M12.616603125000001 -9.557320749999985 V-16.354752999999985 Q12.616603125000001 -18.593836374999988 13.697730375 -20.307840249999984 Q14.778759000000003 -22.021745499999987 16.718811375 -23.155439874999992 Q21.5535075 -26.004716124999987 26.894347125 -27.64337049999999 Q32.235285375 -29.282024874999983 39.0480045 -29.282024874999983 Q45.860723625 -29.282024874999983 51.20156325 -27.64337049999999 Q56.5425015 -26.004716124999987 61.377197625 -23.155439874999992 Q63.31725 -22.021745499999987 64.398278625 -20.307840249999984 Q65.47930725 -18.593836374999988 65.47930725 -16.354752999999985 V-9.557320749999985 H12.616603125000001 Z M72.58030725 -9.557320749999985 V-16.051283874999985 Q72.58030725 -19.738280874999987 71.1713505 -22.813901499999986 Q69.76229512500001 -25.889522124999992 67.4520045 -27.817838124999987 Q70.23618825 -27.028838124999993 72.963465375 -25.887056499999986 Q75.69074250000001 -24.745274874999986 78.33842925 -23.152185249999988 Q80.01505425 -22.211499999999987 81.03917625000001 -20.276477499999984 Q82.06339687500001 -18.34155362499999 82.06339687500001 -16.051283874999985 V-9.557320749999985 H72.58030725 Z M39.0480045 -36.443975124999994 Q33.944259375 -36.443975124999994 30.381431250000002 -40.00670462499999 Q26.818603125000003 -43.569532749999986 26.818603125000003 -48.67327787499999 Q26.818603125000003 -53.77712162499999 30.381431250000002 -57.339851124999996 Q33.944259375 -60.90267924999999 39.0480045 -60.90267924999999 Q44.151749625 -60.90267924999999 47.714577750000004 -57.339851124999996 Q51.27730725000001 -53.77712162499999 51.27730725000001 -48.67327787499999 Q51.27730725000001 -43.569532749999986 47.714577750000004 -40.00670462499999 Q44.151749625 -36.443975124999994 39.0480045 -36.443975124999994 Z M66.799205625 -48.67327787499999 Q66.799205625 -43.569532749999986 63.236377499999996 -40.00670462499999 Q59.673549375 -36.443975124999994 54.569804250000004 -36.443975124999994 Q54.19808662500001 -36.443975124999994 54.152620500000005 -36.39841037499998 Q54.107154375 -36.352845624999986 53.735436750000005 -36.43628237499999 Q55.871851500000005 -38.94599274999999 57.125079375000006 -42.020133999999985 Q58.378307250000006 -45.09427524999999 58.378307250000006 -48.67801187499999 Q58.378307250000006 -52.26164987499999 57.10002862500001 -55.307683 Q55.82175 -58.3536175 53.735436750000005 -60.91027337499999 Q53.993341125 -60.9178675 54.152620500000005 -60.91027337499999 Q54.31189987500001 -60.90267924999999 54.569804250000004 -60.90267924999999 Q59.673549375 -60.90267924999999 63.236377499999996 -57.339851124999996 Q66.799205625 -53.77712162499999 66.799205625 -48.67327787499999 Z M17.7450045 -14.685722124999987 H60.3510045 V-16.354752999999985 Q60.3510045 -17.144640624999987 59.97682125 -17.742603999999986 Q59.602539375000006 -18.340665999999988 58.65919125 -18.858348624999984 Q54.478970625 -21.369439749999984 49.61606775 -22.761630249999982 Q44.75306625 -24.153722124999987 39.0480045 -24.153722124999987 Q33.34294275 -24.153722124999987 28.47994125 -22.810942749999988 Q23.617038375 -21.46806474999999 19.43681775 -18.858348624999984 Q18.493469625000003 -18.35200787499999 18.11918775 -17.77445987499999 Q17.7450045 -17.196813249999988 17.7450045 -16.363925124999987 V-14.685722124999987 Z M39.068913 -41.57227787499999 Q42.0067545 -41.57227787499999 44.0778795 -43.66440999999999 Q46.1490045 -45.75644349999999 46.1490045 -48.69428499999999 Q46.1490045 -51.63202787499999 44.056971000000004 -53.70315287499999 Q41.964838875000005 -55.774277874999996 39.027096 -55.774277874999996 Q36.0892545 -55.774277874999996 34.0181295 -53.682244374999996 Q31.9470045 -51.59011224999998 31.9470045 -48.65236937499999 Q31.9470045 -45.71452787499999 34.039038000000005 -43.64340287499999 Q36.131170125 -41.57227787499999 39.068913 -41.57227787499999 Z"/></g><g id="Thin-S" transform="matrix(1 0 0 1 814.015 696)"><path d="M15.764811750000002 -12.288246999999988 V-16.809907374999987 Q15.764811750000002 -18.74552162499999 16.694155125 -20.042341749999984 Q17.6234985 -21.339063249999988 19.33385325 -22.32432699999999 Q23.677594125000002 -24.86678087499999 28.392559500000004 -26.46756324999999 Q33.1076235 -28.068345624999985 40.22381175 -28.068345624999985 Q47.34 -28.068345624999985 52.055064 -26.46756324999999 Q56.770029375 -24.86678087499999 61.11377025 -22.32432699999999 Q62.824125 -21.339063249999988 63.753468375000004 -20.042341749999984 Q64.68281175 -18.74552162499999 64.68281175 -16.809907374999987 V-12.288246999999988 H15.764811750000002 Z M71.78381175 -12.288246999999988 V-16.20296912499999 Q71.78381175 -19.434811749999987 70.88888850000001 -22.035651624999986 Q69.99386662500001 -24.63649149999999 68.62781175 -26.22484712499999 Q70.3500015 -25.435847124999988 72.204841875 -24.483721374999988 Q74.059780875 -23.531595624999987 76.100628 -22.31771912499999 Q77.284128 -21.718374999999988 78.099658125 -19.985928249999994 Q78.91518825 -18.253580124999992 78.91518825 -16.20296912499999 V-12.288246999999988 H71.78381175 Z M40.22381175 -37.65765437499999 Q35.93362425 -37.65765437499999 32.950218 -40.64106062499999 Q29.96681175 -43.62446687499999 29.96681175 -47.91465437499999 Q29.96681175 -52.20494049999999 32.950218 -55.188346749999994 Q35.93362425 -58.17175299999998 40.22381175 -58.17175299999998 Q44.513999250000005 -58.17175299999998 47.4974055 -55.188346749999994 Q50.48081175 -52.20494049999999 50.48081175 -47.91465437499999 Q50.48081175 -43.62446687499999 47.4974055 -40.64106062499999 Q44.513999250000005 -37.65765437499999 40.22381175 -37.65765437499999 Z M62.589003 -47.91465437499999 Q62.589003 -43.62446687499999 59.605596750000004 -40.64106062499999 Q56.6221905 -37.65765437499999 52.332003 -37.65765437499999 Q52.377469125000005 -37.65765437499999 52.97681325 -37.51731099999999 Q53.576157375 -37.37696762499999 53.621623500000005 -37.34659112499999 Q55.42892662500001 -39.50598549999999 56.505319875000005 -42.153080499999994 Q57.58181175 -44.80017549999998 57.58181175 -47.92412237499999 Q57.58181175 -51.04797062499999 56.455218375 -53.638750749999986 Q55.328625 -56.229530874999995 53.621623500000005 -58.482816249999985 Q53.348530875 -58.30065587499999 52.97681325 -58.23625374999999 Q52.605095625000004 -58.17175299999998 52.332003 -58.17175299999998 Q56.6221905 -58.17175299999998 59.605596750000004 -55.188346749999994 Q62.589003 -52.20494049999999 62.589003 -47.91465437499999 Z M18.920811750000002 -15.444345624999986 H61.52681175 V-16.809907374999987 Q61.52681175 -17.75148024999999 61.076785875000006 -18.42538487499999 Q60.626661375000005 -19.099190874999987 59.228060250000006 -19.84449999999999 Q55.503092625 -22.20390587499999 50.905688250000004 -23.558125749999988 Q46.30818525 -24.912345624999986 40.22381175 -24.912345624999986 Q34.13943825 -24.912345624999986 29.54193525 -23.607438249999987 Q24.944530875 -22.302530874999988 21.21956325 -19.84449999999999 Q19.820962125 -19.110532749999987 19.370837625 -18.457142124999987 Q18.920811750000002 -17.803751499999986 18.920811750000002 -16.81907949999999 V-15.444345624999986 Z M40.24472025 -40.81365437499999 Q43.182561750000005 -40.81365437499999 45.25368675 -42.905786499999984 Q47.32481175 -44.99781999999998 47.32481175 -47.93566149999999 Q47.32481175 -50.87340437499999 45.23277825 -52.94452937499999 Q43.140646125 -55.015654375 40.202903250000006 -55.015654375 Q37.26506175 -55.015654375 35.19393675 -52.923620875 Q33.122811750000004 -50.83158737499999 33.122811750000004 -47.89374587499999 Q33.122811750000004 -44.95590437499999 35.21484525 -42.88477937499999 Q37.306977375 -40.81365437499999 40.24472025 -40.81365437499999 Z"/></g><g id="Ultralight-S" transform="matrix(1 0 0 1 517.792 696)"><path d="M17.653875 -13.926999999999989 V-17.082999999999988 Q17.653875 -18.836552499999986 18.4921875 -19.882963749999988 Q19.3305 -20.929374999999986 20.903075625 -21.825580374999987 Q24.952125000000002 -24.18399999999999 29.291625 -25.761999999999986 Q33.631125000000004 -27.33999999999999 40.929375 -27.33999999999999 Q48.227625 -27.33999999999999 52.567125000000004 -25.761999999999986 Q56.906625000000005 -24.18399999999999 60.955674375 -21.825580374999987 Q62.52825 -20.929374999999986 63.3665625 -19.882963749999988 Q64.204875 -18.836552499999986 64.204875 -17.082999999999988 V-13.926999999999989 H17.653875 Z M71.305875 -13.926999999999989 V-16.293999999999986 Q71.305875 -19.25274999999999 70.719352125 -21.56866224999999 Q70.13282925 -23.884574499999985 69.333375 -25.268874999999987 Q70.41825 -24.479874999999986 71.74968750000001 -23.641562499999985 Q73.081125 -22.80324999999999 74.75775 -21.816999999999986 Q75.645375 -21.422499999999985 76.33575 -19.811657874999984 Q77.02612500000001 -18.20071712499999 77.02612500000001 -16.293999999999986 V-13.926999999999989 H71.305875 Z M40.929375 -38.38599999999999 Q37.12738125 -38.38599999999999 34.491628125000005 -41.02175312499999 Q31.855875 -43.65750624999999 31.855875 -47.45949999999999 Q31.855875 -51.261493749999985 34.491628125000005 -53.89724687499999 Q37.12738125 -56.53299999999999 40.929375 -56.53299999999999 Q44.73136875 -56.53299999999999 47.367121875 -53.89724687499999 Q50.002875 -51.261493749999985 50.002875 -47.45949999999999 Q50.002875 -43.65750624999999 47.367121875 -41.02175312499999 Q44.73136875 -38.38599999999999 40.929375 -38.38599999999999 Z M60.062625000000004 -47.45949999999999 Q60.062625000000004 -43.65750624999999 57.426871875 -41.02175312499999 Q54.791118749999995 -38.38599999999999 50.989125 -38.38599999999999 Q51.285000000000004 -38.38599999999999 52.27125 -38.18874999999999 Q53.2575 -37.99149999999999 53.553375 -37.89287499999999 Q55.163033625000004 -39.84200087499999 56.133503624999996 -42.23286812499999 Q57.103875 -44.62373537499998 57.103875 -47.47172949999999 Q57.103875 -50.31962499999999 56.068312500000005 -52.63731249999999 Q55.03275 -54.954999999999984 53.553375 -57.02612499999999 Q52.961625000000005 -56.730249999999984 52.27125 -56.631624999999985 Q51.580875 -56.53299999999999 50.989125 -56.53299999999999 Q54.791118749999995 -56.53299999999999 57.426871875 -53.89724687499999 Q60.062625000000004 -51.261493749999985 60.062625000000004 -47.45949999999999 Z M19.626375 -15.899499999999989 H62.232375000000005 V-17.082999999999988 Q62.232375000000005 -18.115702374999987 61.736784375000006 -18.835073124999987 Q61.24119375000001 -19.55444387499999 59.569500000000005 -20.436249999999987 Q56.117625000000004 -22.704624999999986 51.679500000000004 -24.036062499999986 Q47.241375000000005 -25.367499999999986 40.929375 -25.367499999999986 Q34.617375 -25.367499999999986 30.17925 -24.085374999999985 Q25.741125 -22.80324999999999 22.289250000000003 -20.436249999999987 Q20.617556250000003 -19.565785749999986 20.121965625 -18.866830374999985 Q19.626375 -18.167874999999988 19.626375 -17.09217212499999 V-15.899499999999989 Z M40.9502835 -40.358499999999985 Q43.888125 -40.358499999999985 45.959250000000004 -42.450533499999985 Q48.030375 -44.542665624999984 48.030375 -47.48040849999999 Q48.030375 -50.418249999999986 45.9383415 -52.489374999999995 Q43.846209375 -54.56049999999999 40.9084665 -54.56049999999999 Q37.970625 -54.56049999999999 35.8995 -52.46846649999999 Q33.828375 -50.37633437499999 33.828375 -47.43859149999999 Q33.828375 -44.50074999999999 35.9204085 -42.42962499999999 Q38.012540625 -40.358499999999985 40.9502835 -40.358499999999985 Z"/></g></g></svg>